M48
; DRILL file {KiCad 9.0.5} date 2025-11-01T17:51:31+0100
; FORMAT={-:-/ absolute / metric / decimal}
; #@! TF.CreationDate,2025-11-01T17:51:31+01:00
; #@! TF.GenerationSoftware,Kicad,Pcbnew,9.0.5
; #@! TF.FileFunction,Plated,1,2,PTH
FMAT,2
METRIC
; #@! TA.AperFunction,Plated,PTH,ViaDrill
T1C0.300
; #@! TA.AperFunction,Plated,PTH,ViaDrill
T2C0.400
; #@! TA.AperFunction,Plated,PTH,ComponentDrill
T3C0.600
; #@! TA.AperFunction,Plated,PTH,ComponentDrill
T4C0.800
; #@! TA.AperFunction,Plated,PTH,ComponentDrill
T5C3.200
%
G90
G05
T1
X89.5Y-60.0
X89.5Y-66.5
X89.5Y-67.5
X89.5Y-68.5
X89.5Y-69.5
X89.5Y-73.5
X89.5Y-74.5
X89.5Y-75.5
X89.5Y-76.5
X89.5Y-77.5
X89.5Y-78.5
X89.5Y-79.5
X89.5Y-80.5
X89.5Y-81.5
X89.5Y-82.5
X89.5Y-83.5
X89.5Y-84.5
X89.5Y-85.5
X89.5Y-86.5
X89.5Y-87.5
X89.5Y-88.5
X89.5Y-89.5
X89.5Y-90.5
X89.5Y-94.0
X90.5Y-58.5
X90.5Y-61.5
X90.5Y-92.5
X90.5Y-95.5
X91.0Y-84.4
X91.0Y-86.2
X91.4Y-89.3
X92.0Y-57.5
X92.0Y-62.5
X92.0Y-91.5
X92.0Y-96.5
X92.5Y-73.6
X93.45Y-82.3
X93.5Y-58.5
X93.5Y-61.5
X93.5Y-92.5
X93.5Y-95.5
X94.05Y-73.486
X94.5Y-60.0
X94.5Y-63.5
X94.5Y-94.0
X94.5Y-96.5
X94.85Y-73.51
X95.5Y-63.5
X96.5Y-63.5
X96.95Y-69.8
X97.0Y-67.8
X97.5Y-63.5
X98.5Y-63.5
X98.5Y-96.5
X99.3Y-76.1
X99.5Y-63.5
X99.5Y-96.5
X100.1Y-71.15
X100.1Y-78.7
X100.5Y-63.5
X100.5Y-96.5
X101.5Y-96.5
X101.8Y-85.0
X101.8Y-89.7
X102.1Y-67.7
X102.1Y-69.9
X102.3Y-76.4
X102.4Y-72.7
X102.5Y-96.5
X103.5Y-96.5
X104.0Y-67.6
X104.0Y-69.95
X104.1Y-73.9
X104.16Y-76.4
X104.17Y-75.14
X104.5Y-96.5
X105.15Y-63.5
X105.5Y-96.5
X106.5Y-96.5
X106.8Y-85.0
X106.8Y-89.7
X106.891Y-70.089
X106.981Y-71.94
X107.1Y-67.4
X107.5Y-96.5
X108.5Y-96.5
X108.6Y-75.9
X109.02Y-71.96
X109.2Y-64.3
X109.26Y-67.42
X109.5Y-78.0
X109.5Y-96.5
X110.5Y-96.5
X110.7Y-66.3
X110.7Y-68.2
X110.7Y-70.2
X111.02Y-71.96
X111.2Y-64.3
X111.35Y-74.952
X111.5Y-96.5
X111.7Y-77.4
X111.8Y-85.0
X111.8Y-89.7
X111.957Y-74.431
X112.0Y-64.9
X112.5Y-96.5
X113.0Y-64.3
X113.0Y-80.25
X113.43Y-74.87
X113.5Y-96.5
X114.0Y-64.9
X114.38Y-71.97
X114.5Y-96.5
X115.0Y-64.3
X115.5Y-96.5
X115.9Y-64.9
X116.38Y-71.97
X116.5Y-96.5
X116.6Y-64.3
X116.62Y-75.86
X116.8Y-85.0
X116.8Y-89.7
X117.2Y-74.019
X117.3Y-66.3
X117.3Y-68.2
X117.3Y-70.2
X117.5Y-96.5
X118.0Y-74.03
X118.79Y-73.81
X118.8Y-64.3
X118.8Y-80.25
X118.9Y-66.5
X118.9Y-68.5
X120.4Y-80.25
X120.82Y-69.011
X120.839Y-69.81
X120.86Y-70.61
X120.87Y-71.41
X120.88Y-72.22
X121.5Y-96.5
X121.99Y-72.809
X122.5Y-96.5
X122.69Y-73.21
X123.5Y-96.5
X123.8Y-76.4
X124.5Y-96.5
X125.49Y-66.05
X125.5Y-96.5
X126.25Y-73.44
X126.5Y-96.5
X126.636Y-71.865
X126.65Y-69.7
X127.5Y-96.5
X128.0Y-75.6
X128.5Y-96.5
X128.65Y-80.25
X128.69Y-65.89
X129.5Y-96.5
X129.5Y-75.8
X130.0Y-68.54
X130.5Y-76.2
X130.5Y-96.5
X131.25Y-81.55
X131.44Y-65.13
X131.5Y-96.5
X131.65Y-82.74
X132.2Y-86.1
X132.5Y-96.5
X132.55Y-82.74
X133.5Y-60.0
X133.5Y-94.0
X134.35Y-69.44
X134.391Y-67.15
X134.5Y-58.5
X134.5Y-61.5
X134.5Y-92.5
X134.5Y-95.5
X134.869Y-82.92
X135.05Y-78.35
X135.14Y-79.405
X135.53Y-76.865
X136.0Y-57.5
X136.0Y-62.5
X136.0Y-91.5
X136.0Y-96.5
X137.3Y-89.6
X137.38Y-82.45
X137.5Y-58.5
X137.5Y-61.5
X137.5Y-92.5
X137.5Y-95.5
X138.5Y-60.0
X138.5Y-72.5
X138.5Y-73.5
X138.5Y-74.5
X138.5Y-75.5
X138.5Y-80.5
X138.5Y-81.5
X138.5Y-82.5
X138.5Y-83.5
X138.5Y-84.5
X138.5Y-85.5
X138.5Y-86.5
X138.5Y-87.5
X138.5Y-88.5
X138.5Y-89.5
X138.5Y-90.5
X138.5Y-94.0
T2
X92.9Y-89.24
X93.76Y-80.93
X99.29Y-80.92
X104.4Y-80.92
X104.974Y-71.894
X105.13Y-65.1
X107.955Y-78.07
X109.31Y-80.92
X114.29Y-80.92
X121.85Y-77.7
X124.23Y-72.97
X130.599Y-77.71
T4
X124.759Y-90.6
X129.759Y-90.6
T5
X92.0Y-60.0
X92.0Y-94.0
X136.0Y-60.0
X136.0Y-94.0
T3
G00X133.225Y-64.18
M15
G01X134.325Y-64.18
M16
G05
G00X133.225Y-72.82
M15
G01X134.325Y-72.82
M16
G05
G00X137.575Y-64.18
M15
G01X138.375Y-64.18
M16
G05
G00X137.575Y-72.82
M15
G01X138.375Y-72.82
M16
G05
M30
