%TF.GenerationSoftware,KiCad,Pcbnew,9.0.5*%
%TF.CreationDate,2025-11-01T17:51:25+01:00*%
%TF.ProjectId,TechBird_SmartTemp,54656368-4269-4726-945f-536d61727454,rev?*%
%TF.SameCoordinates,Original*%
%TF.FileFunction,Copper,L2,Bot*%
%TF.FilePolarity,Positive*%
%FSLAX46Y46*%
G04 Gerber Fmt 4.6, Leading zero omitted, Abs format (unit mm)*
G04 Created by KiCad (PCBNEW 9.0.5) date 2025-11-01 17:51:25*
%MOMM*%
%LPD*%
G01*
G04 APERTURE LIST*
G04 Aperture macros list*
%AMRoundRect*
0 Rectangle with rounded corners*
0 $1 Rounding radius*
0 $2 $3 $4 $5 $6 $7 $8 $9 X,Y pos of 4 corners*
0 Add a 4 corners polygon primitive as box body*
4,1,4,$2,$3,$4,$5,$6,$7,$8,$9,$2,$3,0*
0 Add four circle primitives for the rounded corners*
1,1,$1+$1,$2,$3*
1,1,$1+$1,$4,$5*
1,1,$1+$1,$6,$7*
1,1,$1+$1,$8,$9*
0 Add four rect primitives between the rounded corners*
20,1,$1+$1,$2,$3,$4,$5,0*
20,1,$1+$1,$4,$5,$6,$7,0*
20,1,$1+$1,$6,$7,$8,$9,0*
20,1,$1+$1,$8,$9,$2,$3,0*%
G04 Aperture macros list end*
%TA.AperFunction,ComponentPad*%
%ADD10C,5.600000*%
%TD*%
%TA.AperFunction,ComponentPad*%
%ADD11RoundRect,0.250000X0.550000X0.550000X-0.550000X0.550000X-0.550000X-0.550000X0.550000X-0.550000X0*%
%TD*%
%TA.AperFunction,ComponentPad*%
%ADD12C,1.600000*%
%TD*%
%TA.AperFunction,HeatsinkPad*%
%ADD13O,2.100000X1.000000*%
%TD*%
%TA.AperFunction,HeatsinkPad*%
%ADD14O,1.800000X1.000000*%
%TD*%
%TA.AperFunction,SMDPad,CuDef*%
%ADD15C,1.000000*%
%TD*%
%TA.AperFunction,ViaPad*%
%ADD16C,0.600000*%
%TD*%
%TA.AperFunction,ViaPad*%
%ADD17C,0.800000*%
%TD*%
%TA.AperFunction,Conductor*%
%ADD18C,0.200000*%
%TD*%
%TA.AperFunction,Conductor*%
%ADD19C,0.400000*%
%TD*%
G04 APERTURE END LIST*
D10*
%TO.P,H3,1,1*%
%TO.N,GND*%
X136000000Y-60000000D03*
%TD*%
%TO.P,H2,1,1*%
%TO.N,GND*%
X92000000Y-94000000D03*
%TD*%
D11*
%TO.P,C15,1*%
%TO.N,Net-(C15-Pad1)*%
X129758934Y-90600000D03*
D12*
%TO.P,C15,2*%
%TO.N,GND*%
X124758934Y-90600000D03*
%TD*%
D13*
%TO.P,J1,S1,SHIELD*%
%TO.N,GND*%
X133775000Y-72820000D03*
D14*
X137975000Y-72820000D03*
D13*
X133775000Y-64180000D03*
D14*
X137975000Y-64180000D03*
%TD*%
D10*
%TO.P,H4,1,1*%
%TO.N,GND*%
X136000000Y-94000000D03*
%TD*%
%TO.P,H1,1,1*%
%TO.N,GND*%
X92000000Y-60000000D03*
%TD*%
D15*
%TO.P,TP9,1,1*%
%TO.N,Net-(U6-IO15)*%
X116380000Y-71970000D03*
%TD*%
%TO.P,TP2,1,1*%
%TO.N,/RXD_<*%
X118900000Y-68500000D03*
%TD*%
%TO.P,TP6,1,1*%
%TO.N,Net-(U6-IO2)*%
X109260000Y-67420000D03*
%TD*%
%TO.P,TP11,1,1*%
%TO.N,GND*%
X118900000Y-70500000D03*
%TD*%
%TO.P,TP1,1,1*%
%TO.N,/TXD_>*%
X118900000Y-66500000D03*
%TD*%
%TO.P,TP8,1,1*%
%TO.N,Net-(U6-IO4)*%
X106930000Y-70050000D03*
%TD*%
%TO.P,TP10,1,1*%
%TO.N,Net-(U6-IO5)*%
X106940000Y-72050000D03*
%TD*%
%TO.P,TP5,1,1*%
%TO.N,Net-(U6-IO1)*%
X111020000Y-71960000D03*
%TD*%
%TO.P,TP4,1,1*%
%TO.N,Net-(U6-IO0)*%
X109020000Y-71960000D03*
%TD*%
%TO.P,TP7,1,1*%
%TO.N,Net-(U6-IO14)*%
X114380000Y-71970000D03*
%TD*%
D16*
%TO.N,GND*%
X91000000Y-84400000D03*
X91000000Y-86200000D03*
X90500000Y-95500000D03*
X125500000Y-96500000D03*
X111800000Y-89700000D03*
X112000000Y-64900000D03*
X91400000Y-89300000D03*
X138500000Y-82500000D03*
X101800000Y-89700000D03*
X112500000Y-96500000D03*
X138500000Y-84500000D03*
X138500000Y-83500000D03*
X117300000Y-68200000D03*
X110700000Y-66300000D03*
X113430000Y-74870000D03*
X104000000Y-67600000D03*
X92000000Y-62500000D03*
X99500000Y-63500000D03*
X138500000Y-80500000D03*
X117500000Y-96500000D03*
X90500000Y-92500000D03*
X104000000Y-69950000D03*
X136000000Y-57500000D03*
X137500000Y-61500000D03*
X136000000Y-62500000D03*
X116800000Y-85000000D03*
X137500000Y-92500000D03*
X89500000Y-67500000D03*
X132500002Y-96500000D03*
X118800000Y-80250000D03*
X138500000Y-74500000D03*
X138500000Y-85500000D03*
X97500000Y-63500000D03*
X138500000Y-75500000D03*
X89500000Y-76500000D03*
X113000000Y-64300000D03*
X90500000Y-58500000D03*
X118800000Y-64300000D03*
X92000000Y-57500000D03*
X110700000Y-68200000D03*
X109200000Y-64300000D03*
X92000000Y-91500000D03*
X134500000Y-61500000D03*
X126500000Y-96500000D03*
X89500000Y-89500000D03*
X111700000Y-77400000D03*
X106500001Y-96500000D03*
X133500000Y-60000000D03*
X89500000Y-77500000D03*
X138500000Y-72500000D03*
X102300000Y-76400000D03*
X123800000Y-76400000D03*
X138500000Y-94000000D03*
X104500000Y-96500000D03*
X89500000Y-85500000D03*
X114500000Y-96500000D03*
X124500001Y-96500000D03*
X94500000Y-94000000D03*
X97000000Y-67800000D03*
X126250000Y-73440000D03*
X126650000Y-69700000D03*
X93500000Y-61500000D03*
X99500000Y-96500000D03*
X89500000Y-68500000D03*
X100500000Y-96500000D03*
X107500000Y-96500000D03*
X130500001Y-96500000D03*
X100100000Y-71150000D03*
X137500000Y-95500000D03*
X93450000Y-82300000D03*
X89500000Y-82500000D03*
X129499999Y-96500000D03*
X136000000Y-96500000D03*
X102400000Y-72700000D03*
X103500000Y-96500000D03*
X115500001Y-96500000D03*
X89500000Y-81500000D03*
X89500000Y-90500000D03*
X109500000Y-78000000D03*
X89500000Y-88500000D03*
X102499999Y-96500000D03*
X89500000Y-80500000D03*
X106800000Y-89700000D03*
X98500000Y-96500000D03*
X133500000Y-94000000D03*
X117300000Y-70200000D03*
X116620000Y-75860000D03*
X93500000Y-92500000D03*
X128650000Y-80250000D03*
X130000000Y-68540000D03*
X89500000Y-75500000D03*
X101500000Y-96500000D03*
X131500001Y-96500000D03*
X94500000Y-96500000D03*
X138500000Y-89500000D03*
X108600000Y-75900000D03*
X100100000Y-78700000D03*
X95500000Y-63500000D03*
X89500000Y-87500000D03*
X89500000Y-73500000D03*
X93500000Y-95500000D03*
X116600000Y-64300000D03*
X134500000Y-92500000D03*
X130500000Y-76200000D03*
X113500000Y-96500000D03*
X111800000Y-85000000D03*
X136000000Y-91500000D03*
X121500000Y-96500000D03*
X89500000Y-69500000D03*
X100500000Y-63500000D03*
X94500000Y-63500000D03*
X138500000Y-81500000D03*
X105150000Y-63500000D03*
X114000000Y-64900000D03*
X127500000Y-96500000D03*
X110700000Y-70200000D03*
X111499999Y-96500000D03*
X89500000Y-78500000D03*
X115000000Y-64300000D03*
X89500000Y-60000000D03*
X134500000Y-95500000D03*
X107100000Y-67400000D03*
X123500000Y-96500000D03*
X113000000Y-80250000D03*
X128000000Y-75600000D03*
X131250000Y-81550000D03*
X96500000Y-63500000D03*
X117300000Y-66300000D03*
X89500000Y-66500000D03*
X137500000Y-58500000D03*
X99300000Y-76100000D03*
X96950000Y-69800000D03*
X104100000Y-73900000D03*
X111200000Y-64300000D03*
X134500000Y-58500000D03*
X138500000Y-87500000D03*
X138500000Y-90500000D03*
X92000000Y-96500000D03*
X94500000Y-60000000D03*
X128500000Y-96500000D03*
X89500000Y-84500000D03*
X109500000Y-96500000D03*
X105500000Y-96500000D03*
X92500000Y-73600000D03*
X89500000Y-86500000D03*
X98500000Y-63500000D03*
X90500000Y-61500000D03*
X138500000Y-60000000D03*
X138500000Y-73500000D03*
X106800000Y-85000000D03*
X89500000Y-79500000D03*
X138500000Y-86500000D03*
X120400000Y-80250000D03*
X108500000Y-96500000D03*
X122500000Y-96500000D03*
X101800000Y-85000000D03*
X115900000Y-64900000D03*
X116500000Y-96500000D03*
X110500000Y-96500000D03*
X138500000Y-88500000D03*
X116800000Y-89700000D03*
X89500000Y-94000000D03*
X89500000Y-83500000D03*
X93500000Y-58500000D03*
X89500000Y-74500000D03*
D17*
%TO.N,+3.3V*%
X104974000Y-71894000D03*
X124230000Y-72970000D03*
X92900000Y-89240000D03*
X105130000Y-65100000D03*
X121850000Y-77700000D03*
X107955000Y-78070000D03*
X130599229Y-77709701D03*
%TO.N,+3.3VA*%
X114290000Y-80920000D03*
X104400000Y-80920000D03*
X99290000Y-80920000D03*
X109310000Y-80920000D03*
X93760000Y-80930000D03*
D16*
%TO.N,~{CHARGE}*%
X129500000Y-75800000D03*
X118790000Y-73810000D03*
%TO.N,Net-(U6-EN)*%
X102100000Y-67700000D03*
X102100000Y-69900000D03*
%TO.N,LP_I2C_SCL*%
X94050344Y-73486481D03*
X132550000Y-82740000D03*
X111957235Y-74431294D03*
X104170000Y-75140000D03*
X135050000Y-78350000D03*
%TO.N,LP_I2C_SDA*%
X94850000Y-73510000D03*
X131650000Y-82740000D03*
X135140000Y-79405000D03*
X111349634Y-74951703D03*
X104160000Y-76400000D03*
%TO.N,/HEARTBEAT*%
X125490000Y-66050000D03*
X120819534Y-69010564D03*
%TO.N,USB_DETECT*%
X126636235Y-71864765D03*
X120880000Y-72220000D03*
%TO.N,Net-(U6-IO0)*%
X109020000Y-71960000D03*
%TO.N,Net-(U6-IO1)*%
X111020000Y-71960000D03*
%TO.N,Net-(U6-IO2)*%
X109260000Y-67420000D03*
%TO.N,~{WKUP}*%
X120838701Y-69810336D03*
X137380000Y-82450000D03*
%TO.N,Net-(U6-IO14)*%
X114380000Y-71970000D03*
%TO.N,/RXD_<*%
X118900000Y-68500000D03*
%TO.N,/TXD_>*%
X118900000Y-66500000D03*
%TO.N,Net-(U6-IO8)*%
X117200070Y-74019190D03*
X121990000Y-72809000D03*
%TO.N,Net-(U6-IO9)*%
X122690000Y-73210000D03*
X118000000Y-74030000D03*
%TO.N,~{ALERT}*%
X120859611Y-70610065D03*
X135530000Y-76865000D03*
%TO.N,Net-(U6-IO4)*%
X106890735Y-70089265D03*
%TO.N,Net-(U6-IO15)*%
X116380000Y-71970000D03*
%TO.N,Net-(U6-IO5)*%
X106981498Y-71940213D03*
%TO.N,CLKOUT*%
X134868968Y-82919999D03*
X120870000Y-71410000D03*
%TO.N,Net-(U7-VBACKUP)*%
X137300000Y-89600000D03*
X132200000Y-86100000D03*
%TO.N,Net-(J1-CC1)*%
X134350000Y-69440000D03*
X128690000Y-65890000D03*
%TO.N,Net-(J1-CC2)*%
X134391000Y-67150100D03*
X131440000Y-65130000D03*
%TD*%
D18*
%TO.N,Net-(U6-EN)*%
X102100000Y-69900000D02*
X102100000Y-67700000D01*
D19*
%TO.N,+3.3V*%
X107085000Y-77200000D02*
X107955000Y-78070000D01*
X94500000Y-77200000D02*
X107085000Y-77200000D01*
X92749000Y-82590364D02*
X92749000Y-82009636D01*
X92900000Y-82741364D02*
X92749000Y-82590364D01*
X92749000Y-82009636D02*
X92900000Y-81858636D01*
X92900000Y-81858636D02*
X92900000Y-78800000D01*
X92900000Y-89240000D02*
X92900000Y-82741364D01*
X92900000Y-78800000D02*
X94500000Y-77200000D01*
X104974000Y-71894000D02*
X104974000Y-65256000D01*
X124230000Y-73228463D02*
X124230000Y-72970000D01*
X130598930Y-77710000D02*
X121860000Y-77710000D01*
X104974000Y-65256000D02*
X105130000Y-65100000D01*
X121850000Y-77700000D02*
X121850000Y-75608463D01*
X121850000Y-75608463D02*
X124230000Y-73228463D01*
X130599229Y-77709701D02*
X130598930Y-77710000D01*
X121860000Y-77710000D02*
X121850000Y-77700000D01*
%TO.N,+3.3VA*%
X93760000Y-80930000D02*
X99280000Y-80930000D01*
X99280000Y-80930000D02*
X99290000Y-80920000D01*
X114290000Y-80920000D02*
X114259000Y-80951000D01*
X109341000Y-80951000D02*
X109310000Y-80920000D01*
X114259000Y-80951000D02*
X109341000Y-80951000D01*
X104400000Y-80920000D02*
X99290000Y-80920000D01*
X109310000Y-80920000D02*
X104400000Y-80920000D01*
D18*
%TO.N,~{CHARGE}*%
X123291000Y-72739000D02*
X123800000Y-72230000D01*
X119072843Y-73810000D02*
X122440057Y-73810000D01*
X123291000Y-73458943D02*
X123291000Y-72739000D01*
X123800000Y-72230000D02*
X126060000Y-72230000D01*
X122440057Y-73810000D02*
X122441057Y-73811000D01*
X122441057Y-73811000D02*
X122938943Y-73811000D01*
X122938943Y-73811000D02*
X123291000Y-73458943D01*
X118790000Y-73810000D02*
X118931422Y-73668578D01*
X126060000Y-72230000D02*
X129500000Y-75670000D01*
X129500000Y-75670000D02*
X129500000Y-75800000D01*
X118931422Y-73668578D02*
X119072843Y-73810000D01*
%TO.N,LP_I2C_SCL*%
X94050344Y-73459713D02*
X94601057Y-72909000D01*
X134951100Y-80006000D02*
X132550000Y-82407100D01*
X132550000Y-82407100D02*
X132550000Y-82740000D01*
X135740000Y-79130000D02*
X135727472Y-79142528D01*
X134870000Y-78530000D02*
X116055941Y-78530000D01*
X101716100Y-73109000D02*
X103747100Y-75140000D01*
X135727472Y-79142528D02*
X135741000Y-79156057D01*
X135741000Y-79653943D02*
X135388943Y-80006000D01*
X116055941Y-78530000D02*
X111957235Y-74431294D01*
X111957235Y-74431294D02*
X111957235Y-74402765D01*
X135050000Y-78350000D02*
X135740000Y-79040000D01*
X111957235Y-74402765D02*
X111854470Y-74300000D01*
X135050000Y-78350000D02*
X134870000Y-78530000D01*
X103747100Y-75140000D02*
X104170000Y-75140000D01*
X105010000Y-74300000D02*
X104170000Y-75140000D01*
X135741000Y-79156057D02*
X135741000Y-79653943D01*
X101699000Y-73109000D02*
X101716100Y-73109000D01*
X135740000Y-79040000D02*
X135740000Y-79130000D01*
X101499000Y-72909000D02*
X101699000Y-73109000D01*
X94050344Y-73486481D02*
X94050344Y-73459713D01*
X135388943Y-80006000D02*
X134951100Y-80006000D01*
X94601057Y-72909000D02*
X101499000Y-72909000D01*
X111854470Y-74300000D02*
X105010000Y-74300000D01*
%TO.N,LP_I2C_SDA*%
X135140000Y-79405000D02*
X134985000Y-79405000D01*
X101532900Y-73510000D02*
X101550000Y-73510000D01*
X95050000Y-73310000D02*
X101332900Y-73310000D01*
X105608297Y-74951703D02*
X104160000Y-76400000D01*
X134985000Y-79405000D02*
X131650000Y-82740000D01*
X115380000Y-78960000D02*
X134695000Y-78960000D01*
X111349634Y-74951703D02*
X105608297Y-74951703D01*
X134695000Y-78960000D02*
X135140000Y-79405000D01*
X111371703Y-74951703D02*
X115380000Y-78960000D01*
X111349634Y-74951703D02*
X111371703Y-74951703D01*
X94850000Y-73510000D02*
X95050000Y-73310000D01*
X104160000Y-76120000D02*
X104160000Y-76400000D01*
X101332900Y-73310000D02*
X101532900Y-73510000D01*
X101550000Y-73510000D02*
X104160000Y-76120000D01*
%TO.N,/HEARTBEAT*%
X120819534Y-69010564D02*
X122529436Y-69010564D01*
X122529436Y-69010564D02*
X125490000Y-66050000D01*
%TO.N,USB_DETECT*%
X121118943Y-72011000D02*
X121527943Y-71602000D01*
X121089000Y-72011000D02*
X121118943Y-72011000D01*
X126373470Y-71602000D02*
X126636235Y-71864765D01*
X126298000Y-71602000D02*
X126373470Y-71602000D01*
X121527943Y-71602000D02*
X126298000Y-71602000D01*
X120880000Y-72220000D02*
X121089000Y-72011000D01*
%TO.N,~{WKUP}*%
X136131000Y-76631000D02*
X137380000Y-77880000D01*
X121499000Y-70399000D02*
X127366100Y-70399000D01*
X121108554Y-70009065D02*
X121460611Y-70361122D01*
X136131000Y-76616057D02*
X136131000Y-76631000D01*
X121460611Y-70361122D02*
X121461122Y-70361122D01*
X120838701Y-69810336D02*
X121037430Y-70009065D01*
X137380000Y-77880000D02*
X137380000Y-82450000D01*
X127367100Y-70400000D02*
X127400000Y-70400000D01*
X121037430Y-70009065D02*
X121108554Y-70009065D01*
X133264000Y-76264000D02*
X135778943Y-76264000D01*
X135778943Y-76264000D02*
X136131000Y-76616057D01*
X121461122Y-70361122D02*
X121499000Y-70399000D01*
X127366100Y-70399000D02*
X127367100Y-70400000D01*
X127400000Y-70400000D02*
X133264000Y-76264000D01*
%TO.N,Net-(U6-IO8)*%
X120580057Y-72770000D02*
X120631057Y-72821000D01*
X120631057Y-72821000D02*
X121978000Y-72821000D01*
X118410057Y-72770000D02*
X120580057Y-72770000D01*
X121978000Y-72821000D02*
X121990000Y-72809000D01*
X117200070Y-73979987D02*
X118410057Y-72770000D01*
X117200070Y-74019190D02*
X117200070Y-73979987D01*
%TO.N,Net-(U6-IO9)*%
X122690000Y-73210000D02*
X122490000Y-73410000D01*
X118000000Y-73750057D02*
X118000000Y-74030000D01*
X122490000Y-73410000D02*
X119239943Y-73410000D01*
X119038943Y-73209000D02*
X118541057Y-73209000D01*
X119239943Y-73410000D02*
X119038943Y-73209000D01*
X118541057Y-73209000D02*
X118000000Y-73750057D01*
%TO.N,~{ALERT}*%
X121049546Y-70800000D02*
X127200000Y-70800000D01*
X133265000Y-76865000D02*
X135530000Y-76865000D01*
X120859611Y-70610065D02*
X121049546Y-70800000D01*
X127200000Y-70800000D02*
X133265000Y-76865000D01*
%TO.N,CLKOUT*%
X136570000Y-80060000D02*
X134868968Y-81761032D01*
X134849000Y-77749000D02*
X135298943Y-77749000D01*
X134520000Y-77420000D02*
X134849000Y-77749000D01*
X126821000Y-71201000D02*
X133040000Y-77420000D01*
X135298943Y-77749000D02*
X136570000Y-79020057D01*
X121068935Y-71211065D02*
X121108554Y-71211065D01*
X121118619Y-71201000D02*
X126821000Y-71201000D01*
X120870000Y-71410000D02*
X121068935Y-71211065D01*
X134868968Y-81761032D02*
X134868968Y-82919999D01*
X136570000Y-79020057D02*
X136570000Y-80060000D01*
X121108554Y-71211065D02*
X121118619Y-71201000D01*
X133040000Y-77420000D02*
X134520000Y-77420000D01*
%TO.N,Net-(U7-VBACKUP)*%
X132200000Y-86100000D02*
X132000000Y-86100000D01*
X135700000Y-89600000D02*
X132200000Y-86100000D01*
X137300000Y-89600000D02*
X135700000Y-89600000D01*
%TO.N,Net-(J1-CC1)*%
X134350000Y-69440000D02*
X132240000Y-69440000D01*
X132240000Y-69440000D02*
X128690000Y-65890000D01*
%TO.N,Net-(J1-CC2)*%
X134391000Y-67150100D02*
X133460100Y-67150100D01*
X133460100Y-67150100D02*
X131440000Y-65130000D01*
%TD*%
%TA.AperFunction,Conductor*%
%TO.N,GND*%
G36*
X127194412Y-71999383D02*
G01*
X132799540Y-77604511D01*
X132855489Y-77660460D01*
X132905649Y-77689420D01*
X132916159Y-77695488D01*
X132924011Y-77700021D01*
X132959478Y-77709524D01*
X133000436Y-77720500D01*
X133000438Y-77720500D01*
X134375233Y-77720500D01*
X134409881Y-77734852D01*
X134648959Y-77973930D01*
X134663311Y-78008578D01*
X134650536Y-78039431D01*
X134651456Y-78040137D01*
X134649500Y-78042685D01*
X134583608Y-78156811D01*
X134583607Y-78156815D01*
X134573863Y-78193182D01*
X134551033Y-78222935D01*
X134526533Y-78229500D01*
X131046962Y-78229500D01*
X131012314Y-78215148D01*
X130997962Y-78180500D01*
X131012314Y-78145852D01*
X131033314Y-78124852D01*
X131079749Y-78078417D01*
X131158806Y-77941485D01*
X131199728Y-77788761D01*
X131199729Y-77788761D01*
X131199729Y-77630641D01*
X131199728Y-77630640D01*
X131167516Y-77510423D01*
X131158806Y-77477917D01*
X131158805Y-77477916D01*
X131158805Y-77477914D01*
X131079753Y-77340991D01*
X131079750Y-77340988D01*
X131079749Y-77340985D01*
X130967945Y-77229181D01*
X130967942Y-77229179D01*
X130967938Y-77229176D01*
X130831015Y-77150124D01*
X130831011Y-77150123D01*
X130678289Y-77109201D01*
X130678286Y-77109201D01*
X130520172Y-77109201D01*
X130520169Y-77109201D01*
X130367446Y-77150123D01*
X130367442Y-77150124D01*
X130230519Y-77229176D01*
X130230510Y-77229183D01*
X130164546Y-77295148D01*
X130129898Y-77309500D01*
X122329032Y-77309500D01*
X122294384Y-77295148D01*
X122264852Y-77265616D01*
X122250500Y-77230968D01*
X122250500Y-75794651D01*
X122264851Y-75760004D01*
X124536473Y-73488381D01*
X124546614Y-73480599D01*
X124598716Y-73450520D01*
X124710520Y-73338716D01*
X124789577Y-73201784D01*
X124830499Y-73049060D01*
X124830500Y-73049060D01*
X124830500Y-72890940D01*
X124830499Y-72890939D01*
X124789577Y-72738217D01*
X124789576Y-72738213D01*
X124712089Y-72604000D01*
X124707194Y-72566818D01*
X124730024Y-72537065D01*
X124754524Y-72530500D01*
X125915233Y-72530500D01*
X125949881Y-72544852D01*
X129009004Y-75603975D01*
X129023356Y-75638623D01*
X129021686Y-75651305D01*
X128999500Y-75734104D01*
X128999500Y-75865895D01*
X129033607Y-75993184D01*
X129033608Y-75993188D01*
X129094659Y-76098929D01*
X129099500Y-76107314D01*
X129192686Y-76200500D01*
X129234457Y-76224617D01*
X129306811Y-76266391D01*
X129306813Y-76266391D01*
X129306814Y-76266392D01*
X129407207Y-76293292D01*
X129434104Y-76300499D01*
X129434105Y-76300500D01*
X129434108Y-76300500D01*
X129565895Y-76300500D01*
X129565895Y-76300499D01*
X129693186Y-76266392D01*
X129807314Y-76200500D01*
X129900500Y-76107314D01*
X129966392Y-75993186D01*
X130000499Y-75865895D01*
X130000500Y-75865895D01*
X130000500Y-75734105D01*
X130000499Y-75734104D01*
X129988547Y-75689500D01*
X129966392Y-75606814D01*
X129966391Y-75606813D01*
X129966391Y-75606811D01*
X129900499Y-75492685D01*
X129807314Y-75399500D01*
X129693188Y-75333608D01*
X129693184Y-75333607D01*
X129562971Y-75298716D01*
X129541005Y-75286034D01*
X126697554Y-72442583D01*
X126683202Y-72407935D01*
X126697554Y-72373287D01*
X126719520Y-72360605D01*
X126786689Y-72342607D01*
X126829421Y-72331157D01*
X126943549Y-72265265D01*
X127036735Y-72172079D01*
X127102627Y-72057951D01*
X127112434Y-72021347D01*
X127135263Y-71991596D01*
X127172445Y-71986700D01*
X127194412Y-71999383D01*
G37*
%TD.AperFunction*%
%TA.AperFunction,Conductor*%
G36*
X94985648Y-57114852D02*
G01*
X95000000Y-57149500D01*
X95000000Y-62750000D01*
X133000000Y-62750000D01*
X133000000Y-57149500D01*
X133014352Y-57114852D01*
X133049000Y-57100500D01*
X138850500Y-57100500D01*
X138885148Y-57114852D01*
X138899500Y-57149500D01*
X138899500Y-63737677D01*
X138885148Y-63772325D01*
X138850500Y-63786677D01*
X138815852Y-63772325D01*
X138743408Y-63699881D01*
X138606592Y-63620889D01*
X138606589Y-63620888D01*
X138453994Y-63580000D01*
X138075000Y-63580000D01*
X138075000Y-63880000D01*
X137875000Y-63880000D01*
X137875000Y-63580000D01*
X137496006Y-63580000D01*
X137343410Y-63620888D01*
X137343407Y-63620889D01*
X137206591Y-63699881D01*
X137206591Y-63699882D01*
X137094882Y-63811591D01*
X137094881Y-63811591D01*
X137015889Y-63948407D01*
X137015888Y-63948410D01*
X136980628Y-64079999D01*
X136980629Y-64080000D01*
X137291212Y-64080000D01*
X137275000Y-64140504D01*
X137275000Y-64219496D01*
X137291212Y-64280000D01*
X136980628Y-64280000D01*
X137015888Y-64411589D01*
X137015889Y-64411592D01*
X137094881Y-64548408D01*
X137206591Y-64660118D01*
X137343407Y-64739110D01*
X137343410Y-64739111D01*
X137496005Y-64779999D01*
X137496006Y-64780000D01*
X137875000Y-64780000D01*
X137875000Y-64480000D01*
X138075000Y-64480000D01*
X138075000Y-64780000D01*
X138453994Y-64780000D01*
X138453994Y-64779999D01*
X138606589Y-64739111D01*
X138606592Y-64739110D01*
X138743408Y-64660118D01*
X138743409Y-64660118D01*
X138815852Y-64587675D01*
X138850500Y-64573323D01*
X138885148Y-64587675D01*
X138899500Y-64622323D01*
X138899500Y-72377677D01*
X138885148Y-72412325D01*
X138850500Y-72426677D01*
X138815852Y-72412325D01*
X138743408Y-72339881D01*
X138606592Y-72260889D01*
X138606589Y-72260888D01*
X138453994Y-72220000D01*
X138075000Y-72220000D01*
X138075000Y-72520000D01*
X137875000Y-72520000D01*
X137875000Y-72220000D01*
X137496006Y-72220000D01*
X137343410Y-72260888D01*
X137343407Y-72260889D01*
X137206591Y-72339881D01*
X137206591Y-72339882D01*
X137094882Y-72451591D01*
X137094881Y-72451591D01*
X137015889Y-72588407D01*
X137015888Y-72588410D01*
X136980628Y-72719999D01*
X136980629Y-72720000D01*
X137291212Y-72720000D01*
X137275000Y-72780504D01*
X137275000Y-72859496D01*
X137291212Y-72920000D01*
X136980628Y-72920000D01*
X137015888Y-73051589D01*
X137015889Y-73051592D01*
X137094881Y-73188408D01*
X137206591Y-73300118D01*
X137343407Y-73379110D01*
X137343410Y-73379111D01*
X137496005Y-73419999D01*
X137496006Y-73420000D01*
X137875000Y-73420000D01*
X137875000Y-73120000D01*
X138075000Y-73120000D01*
X138075000Y-73420000D01*
X138453994Y-73420000D01*
X138453994Y-73419999D01*
X138606589Y-73379111D01*
X138606592Y-73379110D01*
X138743408Y-73300118D01*
X138743409Y-73300118D01*
X138815852Y-73227675D01*
X138850500Y-73213323D01*
X138885148Y-73227675D01*
X138899500Y-73262323D01*
X138899500Y-96850500D01*
X138885148Y-96885148D01*
X138850500Y-96899500D01*
X89149500Y-96899500D01*
X89114852Y-96885148D01*
X89100500Y-96850500D01*
X89100500Y-90511361D01*
X123858934Y-90511361D01*
X123858934Y-90688638D01*
X123893520Y-90862520D01*
X123893520Y-90862521D01*
X123961362Y-91026306D01*
X124053424Y-91164086D01*
X124053425Y-91164086D01*
X124414349Y-90803162D01*
X124438854Y-90845606D01*
X124513328Y-90920080D01*
X124555770Y-90944584D01*
X124194845Y-91305508D01*
X124332624Y-91397570D01*
X124496413Y-91465413D01*
X124670295Y-91500000D01*
X124847573Y-91500000D01*
X125021454Y-91465413D01*
X125021455Y-91465413D01*
X125185241Y-91397571D01*
X125323021Y-91305508D01*
X124962096Y-90944584D01*
X125004540Y-90920080D01*
X125079014Y-90845606D01*
X125103518Y-90803162D01*
X125464442Y-91164087D01*
X125556505Y-91026307D01*
X125624347Y-90862521D01*
X125624347Y-90862520D01*
X125658934Y-90688638D01*
X125658934Y-90511361D01*
X125624347Y-90337479D01*
X125624347Y-90337478D01*
X125556504Y-90173690D01*
X125464442Y-90035911D01*
X125103517Y-90396836D01*
X125079014Y-90354394D01*
X125004540Y-90279920D01*
X124962095Y-90255415D01*
X125221787Y-89995724D01*
X128758434Y-89995724D01*
X128758434Y-91204275D01*
X128761287Y-91234698D01*
X128761287Y-91234699D01*
X128806138Y-91362876D01*
X128806142Y-91362885D01*
X128886783Y-91472150D01*
X128996048Y-91552791D01*
X128996051Y-91552792D01*
X128996052Y-91552793D01*
X128996054Y-91552793D01*
X128996057Y-91552795D01*
X129124235Y-91597646D01*
X129154668Y-91600500D01*
X129154678Y-91600500D01*
X130363190Y-91600500D01*
X130363200Y-91600500D01*
X130393633Y-91597646D01*
X130521816Y-91552793D01*
X130631084Y-91472150D01*
X130636056Y-91465413D01*
X130711725Y-91362885D01*
X130711725Y-91362884D01*
X130711727Y-91362882D01*
X130756580Y-91234699D01*
X130759434Y-91204266D01*
X130759434Y-89995734D01*
X130756580Y-89965301D01*
X130738927Y-89914852D01*
X130711729Y-89837123D01*
X130711725Y-89837114D01*
X130631084Y-89727849D01*
X130521819Y-89647208D01*
X130521810Y-89647204D01*
X130393632Y-89602353D01*
X130363209Y-89599500D01*
X130363200Y-89599500D01*
X129154668Y-89599500D01*
X129154658Y-89599500D01*
X129124235Y-89602353D01*
X129124234Y-89602353D01*
X128996057Y-89647204D01*
X128996048Y-89647208D01*
X128886783Y-89727849D01*
X128806142Y-89837114D01*
X128806138Y-89837123D01*
X128761287Y-89965300D01*
X128761287Y-89965301D01*
X128758434Y-89995724D01*
X125221787Y-89995724D01*
X125323020Y-89894491D01*
X125323020Y-89894490D01*
X125185240Y-89802428D01*
X125021454Y-89734586D01*
X124847573Y-89700000D01*
X124670295Y-89700000D01*
X124496413Y-89734586D01*
X124496412Y-89734586D01*
X124332627Y-89802428D01*
X124194846Y-89894489D01*
X124194846Y-89894490D01*
X124555771Y-90255415D01*
X124513328Y-90279920D01*
X124438854Y-90354394D01*
X124414349Y-90396837D01*
X124053424Y-90035912D01*
X124053423Y-90035912D01*
X123961362Y-90173693D01*
X123893520Y-90337478D01*
X123893520Y-90337479D01*
X123858934Y-90511361D01*
X89100500Y-90511361D01*
X89100500Y-89160939D01*
X92299500Y-89160939D01*
X92299500Y-89319060D01*
X92340422Y-89471782D01*
X92340423Y-89471786D01*
X92419475Y-89608709D01*
X92419478Y-89608713D01*
X92419480Y-89608716D01*
X92531284Y-89720520D01*
X92531287Y-89720521D01*
X92531290Y-89720524D01*
X92668213Y-89799576D01*
X92668215Y-89799576D01*
X92668216Y-89799577D01*
X92788665Y-89831851D01*
X92820939Y-89840499D01*
X92820940Y-89840500D01*
X92820943Y-89840500D01*
X92979060Y-89840500D01*
X92979060Y-89840499D01*
X93131784Y-89799577D01*
X93157880Y-89784511D01*
X93268709Y-89720524D01*
X93268708Y-89720524D01*
X93268716Y-89720520D01*
X93380520Y-89608716D01*
X93459577Y-89471784D01*
X93500499Y-89319060D01*
X93500500Y-89319060D01*
X93500500Y-89160940D01*
X93500499Y-89160939D01*
X93459577Y-89008217D01*
X93459576Y-89008213D01*
X93380524Y-88871290D01*
X93380521Y-88871287D01*
X93380520Y-88871284D01*
X93314852Y-88805616D01*
X93300500Y-88770968D01*
X93300500Y-86034104D01*
X131699500Y-86034104D01*
X131699500Y-86165895D01*
X131733607Y-86293184D01*
X131733608Y-86293188D01*
X131799500Y-86407314D01*
X131892686Y-86500500D01*
X131934457Y-86524617D01*
X132006811Y-86566391D01*
X132006813Y-86566391D01*
X132006814Y-86566392D01*
X132107207Y-86593292D01*
X132134104Y-86600499D01*
X132134105Y-86600500D01*
X132255233Y-86600500D01*
X132289881Y-86614852D01*
X135459540Y-89784511D01*
X135515489Y-89840460D01*
X135584011Y-89880021D01*
X135619478Y-89889524D01*
X135660436Y-89900500D01*
X135660438Y-89900500D01*
X136872390Y-89900500D01*
X136907038Y-89914852D01*
X136992686Y-90000500D01*
X137034457Y-90024617D01*
X137106811Y-90066391D01*
X137106813Y-90066391D01*
X137106814Y-90066392D01*
X137207207Y-90093292D01*
X137234104Y-90100499D01*
X137234105Y-90100500D01*
X137234108Y-90100500D01*
X137365895Y-90100500D01*
X137365895Y-90100499D01*
X137493186Y-90066392D01*
X137607314Y-90000500D01*
X137700500Y-89907314D01*
X137766392Y-89793186D01*
X137800499Y-89665895D01*
X137800500Y-89665895D01*
X137800500Y-89534105D01*
X137800499Y-89534104D01*
X137766392Y-89406815D01*
X137766391Y-89406811D01*
X137700499Y-89292685D01*
X137607314Y-89199500D01*
X137493188Y-89133608D01*
X137493184Y-89133607D01*
X137365895Y-89099500D01*
X137365892Y-89099500D01*
X137234108Y-89099500D01*
X137234105Y-89099500D01*
X137106815Y-89133607D01*
X137106811Y-89133608D01*
X136992685Y-89199500D01*
X136992685Y-89199501D01*
X136907038Y-89285148D01*
X136872390Y-89299500D01*
X135844767Y-89299500D01*
X135810119Y-89285148D01*
X132714852Y-86189881D01*
X132700500Y-86155233D01*
X132700500Y-86034105D01*
X132700499Y-86034104D01*
X132666392Y-85906815D01*
X132666391Y-85906811D01*
X132600499Y-85792685D01*
X132507314Y-85699500D01*
X132393188Y-85633608D01*
X132393184Y-85633607D01*
X132265895Y-85599500D01*
X132265892Y-85599500D01*
X132134108Y-85599500D01*
X132134105Y-85599500D01*
X132006815Y-85633607D01*
X132006811Y-85633608D01*
X131892685Y-85699500D01*
X131892685Y-85699501D01*
X131799501Y-85792685D01*
X131799500Y-85792685D01*
X131733608Y-85906811D01*
X131733607Y-85906815D01*
X131699500Y-86034104D01*
X93300500Y-86034104D01*
X93300500Y-82688634D01*
X93300499Y-82688633D01*
X93274978Y-82593385D01*
X93273207Y-82586776D01*
X93273205Y-82586773D01*
X93273206Y-82586773D01*
X93220479Y-82495450D01*
X93163852Y-82438823D01*
X93149500Y-82404175D01*
X93149500Y-82195825D01*
X93163852Y-82161177D01*
X93220479Y-82104550D01*
X93220480Y-82104549D01*
X93273207Y-82013224D01*
X93300499Y-81911366D01*
X93300500Y-81911366D01*
X93300500Y-81438032D01*
X93314852Y-81403384D01*
X93349500Y-81389032D01*
X93384148Y-81403384D01*
X93391284Y-81410520D01*
X93391287Y-81410521D01*
X93391290Y-81410524D01*
X93528213Y-81489576D01*
X93528215Y-81489576D01*
X93528216Y-81489577D01*
X93643619Y-81520499D01*
X93680939Y-81530499D01*
X93680940Y-81530500D01*
X93680943Y-81530500D01*
X93839060Y-81530500D01*
X93839060Y-81530499D01*
X93991784Y-81489577D01*
X94009107Y-81479576D01*
X94128709Y-81410524D01*
X94128708Y-81410524D01*
X94128716Y-81410520D01*
X94194384Y-81344852D01*
X94229032Y-81330500D01*
X98830968Y-81330500D01*
X98865616Y-81344852D01*
X98921284Y-81400520D01*
X98921287Y-81400521D01*
X98921290Y-81400524D01*
X99058213Y-81479576D01*
X99058215Y-81479576D01*
X99058216Y-81479577D01*
X99095537Y-81489577D01*
X99210939Y-81520499D01*
X99210940Y-81520500D01*
X99210943Y-81520500D01*
X99369060Y-81520500D01*
X99369060Y-81520499D01*
X99521784Y-81479577D01*
X99658716Y-81400520D01*
X99724384Y-81334852D01*
X99759032Y-81320500D01*
X103930968Y-81320500D01*
X103965616Y-81334852D01*
X104031284Y-81400520D01*
X104031287Y-81400521D01*
X104031290Y-81400524D01*
X104168213Y-81479576D01*
X104168215Y-81479576D01*
X104168216Y-81479577D01*
X104205537Y-81489577D01*
X104320939Y-81520499D01*
X104320940Y-81520500D01*
X104320943Y-81520500D01*
X104479060Y-81520500D01*
X104479060Y-81520499D01*
X104631784Y-81479577D01*
X104768716Y-81400520D01*
X104834384Y-81334852D01*
X104869032Y-81320500D01*
X108840968Y-81320500D01*
X108875616Y-81334852D01*
X108941284Y-81400520D01*
X108941287Y-81400521D01*
X108941290Y-81400524D01*
X109078213Y-81479576D01*
X109078215Y-81479576D01*
X109078216Y-81479577D01*
X109115537Y-81489577D01*
X109230939Y-81520499D01*
X109230940Y-81520500D01*
X109230943Y-81520500D01*
X109389060Y-81520500D01*
X109389060Y-81520499D01*
X109541784Y-81479577D01*
X109678716Y-81400520D01*
X109713384Y-81365852D01*
X109748032Y-81351500D01*
X113851968Y-81351500D01*
X113886616Y-81365852D01*
X113921284Y-81400520D01*
X113921287Y-81400521D01*
X113921290Y-81400524D01*
X114058213Y-81479576D01*
X114058215Y-81479576D01*
X114058216Y-81479577D01*
X114095537Y-81489577D01*
X114210939Y-81520499D01*
X114210940Y-81520500D01*
X114210943Y-81520500D01*
X114369060Y-81520500D01*
X114369060Y-81520499D01*
X114521784Y-81479577D01*
X114658716Y-81400520D01*
X114770520Y-81288716D01*
X114849577Y-81151784D01*
X114890499Y-80999060D01*
X114890500Y-80999060D01*
X114890500Y-80840940D01*
X114890499Y-80840939D01*
X114849577Y-80688217D01*
X114849576Y-80688213D01*
X114770524Y-80551290D01*
X114770521Y-80551287D01*
X114770520Y-80551284D01*
X114658716Y-80439480D01*
X114658713Y-80439478D01*
X114658709Y-80439475D01*
X114521786Y-80360423D01*
X114521782Y-80360422D01*
X114369060Y-80319500D01*
X114369057Y-80319500D01*
X114210943Y-80319500D01*
X114210940Y-80319500D01*
X114058217Y-80360422D01*
X114058213Y-80360423D01*
X113921290Y-80439475D01*
X113921281Y-80439482D01*
X113824616Y-80536148D01*
X113789968Y-80550500D01*
X109810032Y-80550500D01*
X109775384Y-80536148D01*
X109678718Y-80439482D01*
X109678716Y-80439480D01*
X109678713Y-80439478D01*
X109678709Y-80439475D01*
X109541786Y-80360423D01*
X109541782Y-80360422D01*
X109389060Y-80319500D01*
X109389057Y-80319500D01*
X109230943Y-80319500D01*
X109230940Y-80319500D01*
X109078217Y-80360422D01*
X109078213Y-80360423D01*
X108941290Y-80439475D01*
X108941281Y-80439482D01*
X108875616Y-80505148D01*
X108840968Y-80519500D01*
X104869032Y-80519500D01*
X104834384Y-80505148D01*
X104768718Y-80439482D01*
X104768716Y-80439480D01*
X104768713Y-80439478D01*
X104768709Y-80439475D01*
X104631786Y-80360423D01*
X104631782Y-80360422D01*
X104479060Y-80319500D01*
X104479057Y-80319500D01*
X104320943Y-80319500D01*
X104320940Y-80319500D01*
X104168217Y-80360422D01*
X104168213Y-80360423D01*
X104031290Y-80439475D01*
X104031281Y-80439482D01*
X103965616Y-80505148D01*
X103930968Y-80519500D01*
X99759032Y-80519500D01*
X99724384Y-80505148D01*
X99658718Y-80439482D01*
X99658716Y-80439480D01*
X99658713Y-80439478D01*
X99658709Y-80439475D01*
X99521786Y-80360423D01*
X99521782Y-80360422D01*
X99369060Y-80319500D01*
X99369057Y-80319500D01*
X99210943Y-80319500D01*
X99210940Y-80319500D01*
X99058217Y-80360422D01*
X99058213Y-80360423D01*
X98921290Y-80439475D01*
X98921281Y-80439482D01*
X98845616Y-80515148D01*
X98810968Y-80529500D01*
X94229032Y-80529500D01*
X94194384Y-80515148D01*
X94128718Y-80449482D01*
X94128716Y-80449480D01*
X94128713Y-80449478D01*
X94128709Y-80449475D01*
X93991786Y-80370423D01*
X93991782Y-80370422D01*
X93839060Y-80329500D01*
X93839057Y-80329500D01*
X93680943Y-80329500D01*
X93680940Y-80329500D01*
X93528217Y-80370422D01*
X93528213Y-80370423D01*
X93391290Y-80449475D01*
X93391281Y-80449482D01*
X93384148Y-80456616D01*
X93349500Y-80470968D01*
X93314852Y-80456616D01*
X93300500Y-80421968D01*
X93300500Y-78986188D01*
X93314852Y-78951540D01*
X94651540Y-77614852D01*
X94686188Y-77600500D01*
X106898811Y-77600500D01*
X106933459Y-77614852D01*
X107340148Y-78021541D01*
X107354500Y-78056189D01*
X107354500Y-78149060D01*
X107395422Y-78301782D01*
X107395423Y-78301786D01*
X107474475Y-78438709D01*
X107474478Y-78438713D01*
X107474480Y-78438716D01*
X107586284Y-78550520D01*
X107586287Y-78550521D01*
X107586290Y-78550524D01*
X107723213Y-78629576D01*
X107723215Y-78629576D01*
X107723216Y-78629577D01*
X107826728Y-78657313D01*
X107875939Y-78670499D01*
X107875940Y-78670500D01*
X107875943Y-78670500D01*
X108034060Y-78670500D01*
X108034060Y-78670499D01*
X108186784Y-78629577D01*
X108323716Y-78550520D01*
X108435520Y-78438716D01*
X108514577Y-78301784D01*
X108555499Y-78149060D01*
X108555500Y-78149060D01*
X108555500Y-77990940D01*
X108555499Y-77990939D01*
X108514577Y-77838217D01*
X108514576Y-77838213D01*
X108435523Y-77701289D01*
X108435522Y-77701288D01*
X108435520Y-77701284D01*
X108323716Y-77589480D01*
X108323713Y-77589478D01*
X108323709Y-77589475D01*
X108186786Y-77510423D01*
X108186782Y-77510422D01*
X108034060Y-77469500D01*
X108034057Y-77469500D01*
X107941189Y-77469500D01*
X107906541Y-77455148D01*
X107330913Y-76879520D01*
X107239589Y-76826793D01*
X107239587Y-76826792D01*
X107137730Y-76799500D01*
X107137727Y-76799500D01*
X104586610Y-76799500D01*
X104551962Y-76785148D01*
X104537610Y-76750500D01*
X104551962Y-76715852D01*
X104560499Y-76707315D01*
X104560500Y-76707314D01*
X104626392Y-76593186D01*
X104660499Y-76465895D01*
X104660500Y-76465895D01*
X104660500Y-76344766D01*
X104674852Y-76310118D01*
X105718416Y-75266555D01*
X105753064Y-75252203D01*
X110922024Y-75252203D01*
X110956672Y-75266555D01*
X111042320Y-75352203D01*
X111084091Y-75376320D01*
X111156445Y-75418094D01*
X111156447Y-75418094D01*
X111156448Y-75418095D01*
X111256841Y-75444995D01*
X111283738Y-75452202D01*
X111283739Y-75452203D01*
X111283742Y-75452203D01*
X111415526Y-75452203D01*
X111418707Y-75451784D01*
X111418945Y-75453595D01*
X111450336Y-75457689D01*
X111460535Y-75465506D01*
X115139540Y-79144511D01*
X115195489Y-79200460D01*
X115264011Y-79240021D01*
X115299478Y-79249524D01*
X115340436Y-79260500D01*
X115340438Y-79260500D01*
X115419562Y-79260500D01*
X134550233Y-79260500D01*
X134584881Y-79274852D01*
X134602880Y-79292851D01*
X134617232Y-79327499D01*
X134602880Y-79362147D01*
X131739880Y-82225148D01*
X131705232Y-82239500D01*
X131584105Y-82239500D01*
X131456815Y-82273607D01*
X131456811Y-82273608D01*
X131342685Y-82339500D01*
X131342685Y-82339501D01*
X131249501Y-82432685D01*
X131249500Y-82432685D01*
X131183608Y-82546811D01*
X131183607Y-82546815D01*
X131149500Y-82674104D01*
X131149500Y-82805895D01*
X131183607Y-82933184D01*
X131183608Y-82933188D01*
X131229253Y-83012246D01*
X131249500Y-83047314D01*
X131342686Y-83140500D01*
X131384457Y-83164617D01*
X131456811Y-83206391D01*
X131456813Y-83206391D01*
X131456814Y-83206392D01*
X131534893Y-83227313D01*
X131584104Y-83240499D01*
X131584105Y-83240500D01*
X131584108Y-83240500D01*
X131715895Y-83240500D01*
X131715895Y-83240499D01*
X131843186Y-83206392D01*
X131957314Y-83140500D01*
X132050500Y-83047314D01*
X132057566Y-83035073D01*
X132087317Y-83012246D01*
X132124500Y-83017140D01*
X132142432Y-83035072D01*
X132149500Y-83047314D01*
X132242686Y-83140500D01*
X132284457Y-83164617D01*
X132356811Y-83206391D01*
X132356813Y-83206391D01*
X132356814Y-83206392D01*
X132434893Y-83227313D01*
X132484104Y-83240499D01*
X132484105Y-83240500D01*
X132484108Y-83240500D01*
X132615895Y-83240500D01*
X132615895Y-83240499D01*
X132743186Y-83206392D01*
X132857314Y-83140500D01*
X132950500Y-83047314D01*
X133016392Y-82933186D01*
X133050499Y-82805895D01*
X133050500Y-82805895D01*
X133050500Y-82674105D01*
X133050499Y-82674104D01*
X133034042Y-82612684D01*
X133016392Y-82546814D01*
X132968889Y-82464537D01*
X132963994Y-82427358D01*
X132976675Y-82405394D01*
X135061219Y-80320852D01*
X135095867Y-80306500D01*
X135428507Y-80306500D01*
X135455173Y-80299354D01*
X135504932Y-80286021D01*
X135573454Y-80246460D01*
X135629403Y-80190511D01*
X135981460Y-79838454D01*
X136021022Y-79769931D01*
X136041499Y-79693508D01*
X136041500Y-79693508D01*
X136041500Y-79130176D01*
X136041501Y-79116506D01*
X136041500Y-79116502D01*
X136041500Y-79116495D01*
X136041500Y-79116489D01*
X136041465Y-79116215D01*
X136041164Y-79113772D01*
X136041136Y-79113727D01*
X136041080Y-79113301D01*
X136041413Y-79113257D01*
X136040500Y-79106310D01*
X136040500Y-79033824D01*
X136054852Y-78999176D01*
X136089500Y-78984824D01*
X136124148Y-78999176D01*
X136255148Y-79130176D01*
X136269500Y-79164824D01*
X136269500Y-79915233D01*
X136255148Y-79949881D01*
X134628509Y-81576520D01*
X134628508Y-81576520D01*
X134588947Y-81645040D01*
X134588947Y-81645042D01*
X134568468Y-81721468D01*
X134568468Y-82492389D01*
X134554116Y-82527037D01*
X134468469Y-82612684D01*
X134468468Y-82612684D01*
X134402576Y-82726810D01*
X134402575Y-82726814D01*
X134368468Y-82854103D01*
X134368468Y-82985894D01*
X134402575Y-83113183D01*
X134402576Y-83113187D01*
X134456389Y-83206392D01*
X134468468Y-83227313D01*
X134561654Y-83320499D01*
X134603425Y-83344616D01*
X134675779Y-83386390D01*
X134675781Y-83386390D01*
X134675782Y-83386391D01*
X134776175Y-83413291D01*
X134803072Y-83420498D01*
X134803073Y-83420499D01*
X134803076Y-83420499D01*
X134934863Y-83420499D01*
X134934863Y-83420498D01*
X135062154Y-83386391D01*
X135176282Y-83320499D01*
X135269468Y-83227313D01*
X135335360Y-83113185D01*
X135369467Y-82985894D01*
X135369468Y-82985894D01*
X135369468Y-82854104D01*
X135369467Y-82854103D01*
X135343533Y-82757315D01*
X135335360Y-82726813D01*
X135335359Y-82726812D01*
X135335359Y-82726810D01*
X135269467Y-82612684D01*
X135183820Y-82527037D01*
X135169468Y-82492389D01*
X135169468Y-81905799D01*
X135183820Y-81871151D01*
X136810459Y-80244512D01*
X136810460Y-80244511D01*
X136850022Y-80175988D01*
X136870499Y-80099565D01*
X136870500Y-80099565D01*
X136870500Y-78980493D01*
X136861843Y-78948191D01*
X136850021Y-78904068D01*
X136850020Y-78904066D01*
X136850020Y-78904065D01*
X136821974Y-78855489D01*
X136810460Y-78835546D01*
X136754511Y-78779597D01*
X135483454Y-77508540D01*
X135414933Y-77468979D01*
X135338507Y-77448500D01*
X135338505Y-77448500D01*
X134993767Y-77448500D01*
X134959119Y-77434148D01*
X134774119Y-77249148D01*
X134759767Y-77214500D01*
X134774119Y-77179852D01*
X134808767Y-77165500D01*
X135102390Y-77165500D01*
X135137038Y-77179852D01*
X135222686Y-77265500D01*
X135264457Y-77289617D01*
X135336811Y-77331391D01*
X135336813Y-77331391D01*
X135336814Y-77331392D01*
X135437207Y-77358292D01*
X135464104Y-77365499D01*
X135464105Y-77365500D01*
X135464108Y-77365500D01*
X135595895Y-77365500D01*
X135595895Y-77365499D01*
X135723186Y-77331392D01*
X135723379Y-77331281D01*
X135761104Y-77309500D01*
X135837314Y-77265500D01*
X135930500Y-77172314D01*
X135996392Y-77058186D01*
X136003340Y-77032253D01*
X136026169Y-77002502D01*
X136063352Y-76997606D01*
X136085318Y-77010289D01*
X137065148Y-77990119D01*
X137079500Y-78024767D01*
X137079500Y-82022390D01*
X137065148Y-82057038D01*
X136979501Y-82142685D01*
X136979500Y-82142685D01*
X136913608Y-82256811D01*
X136913607Y-82256815D01*
X136879500Y-82384104D01*
X136879500Y-82515895D01*
X136913607Y-82643184D01*
X136913608Y-82643188D01*
X136972362Y-82744951D01*
X136979500Y-82757314D01*
X137072686Y-82850500D01*
X137114457Y-82874617D01*
X137186811Y-82916391D01*
X137186813Y-82916391D01*
X137186814Y-82916392D01*
X137249491Y-82933186D01*
X137314104Y-82950499D01*
X137314105Y-82950500D01*
X137314108Y-82950500D01*
X137445895Y-82950500D01*
X137445895Y-82950499D01*
X137573186Y-82916392D01*
X137687314Y-82850500D01*
X137780500Y-82757314D01*
X137846392Y-82643186D01*
X137880499Y-82515895D01*
X137880500Y-82515895D01*
X137880500Y-82384105D01*
X137880499Y-82384104D01*
X137850892Y-82273608D01*
X137846392Y-82256814D01*
X137846391Y-82256813D01*
X137846391Y-82256811D01*
X137780499Y-82142685D01*
X137694852Y-82057038D01*
X137680500Y-82022390D01*
X137680500Y-77840437D01*
X137676119Y-77824088D01*
X137676119Y-77824087D01*
X137660022Y-77764012D01*
X137660021Y-77764010D01*
X137634900Y-77720500D01*
X137620460Y-77695489D01*
X136396434Y-76471463D01*
X136388646Y-76461314D01*
X136371462Y-76431549D01*
X136371457Y-76431543D01*
X135963456Y-76023542D01*
X135963450Y-76023537D01*
X135949029Y-76015212D01*
X135949029Y-76015211D01*
X135949027Y-76015211D01*
X135894934Y-75983979D01*
X135894930Y-75983978D01*
X135818507Y-75963500D01*
X135818505Y-75963500D01*
X133408767Y-75963500D01*
X133374119Y-75949148D01*
X130144970Y-72719999D01*
X132630628Y-72719999D01*
X132630629Y-72720000D01*
X132941212Y-72720000D01*
X132925000Y-72780504D01*
X132925000Y-72859496D01*
X132941212Y-72920000D01*
X132630628Y-72920000D01*
X132665888Y-73051589D01*
X132665889Y-73051592D01*
X132744881Y-73188408D01*
X132856591Y-73300118D01*
X132993407Y-73379110D01*
X132993410Y-73379111D01*
X133146005Y-73419999D01*
X133146006Y-73420000D01*
X133675000Y-73420000D01*
X133675000Y-73120000D01*
X133875000Y-73120000D01*
X133875000Y-73420000D01*
X134403994Y-73420000D01*
X134403994Y-73419999D01*
X134556589Y-73379111D01*
X134556592Y-73379110D01*
X134693408Y-73300118D01*
X134693409Y-73300118D01*
X134805118Y-73188409D01*
X134805118Y-73188408D01*
X134884110Y-73051592D01*
X134884111Y-73051589D01*
X134919371Y-72920000D01*
X134608788Y-72920000D01*
X134625000Y-72859496D01*
X134625000Y-72780504D01*
X134608788Y-72720000D01*
X134919371Y-72720000D01*
X134919371Y-72719999D01*
X134884111Y-72588410D01*
X134884110Y-72588407D01*
X134805118Y-72451591D01*
X134693408Y-72339881D01*
X134556592Y-72260889D01*
X134556589Y-72260888D01*
X134403994Y-72220000D01*
X133875000Y-72220000D01*
X133875000Y-72520000D01*
X133675000Y-72520000D01*
X133675000Y-72220000D01*
X133146006Y-72220000D01*
X132993410Y-72260888D01*
X132993407Y-72260889D01*
X132856591Y-72339881D01*
X132856591Y-72339882D01*
X132744882Y-72451591D01*
X132744881Y-72451591D01*
X132665889Y-72588407D01*
X132665888Y-72588410D01*
X132630628Y-72719999D01*
X130144970Y-72719999D01*
X128758740Y-71333769D01*
X133867900Y-71333769D01*
X133867900Y-71446230D01*
X133897006Y-71554852D01*
X133897008Y-71554856D01*
X133953230Y-71652238D01*
X133953233Y-71652242D01*
X133953235Y-71652245D01*
X134032755Y-71731765D01*
X134032758Y-71731766D01*
X134032761Y-71731769D01*
X134074179Y-71755681D01*
X134130146Y-71787993D01*
X134166354Y-71797695D01*
X134238769Y-71817100D01*
X134238771Y-71817100D01*
X134351231Y-71817100D01*
X134405541Y-71802546D01*
X134459854Y-71787993D01*
X134557245Y-71731765D01*
X134636765Y-71652245D01*
X134692993Y-71554854D01*
X134722100Y-71446229D01*
X134722100Y-71333771D01*
X134722100Y-71333769D01*
X134692993Y-71225147D01*
X134692991Y-71225143D01*
X134688182Y-71216814D01*
X134674250Y-71192682D01*
X134636769Y-71127761D01*
X134636766Y-71127758D01*
X134636765Y-71127755D01*
X134557245Y-71048235D01*
X134557242Y-71048233D01*
X134557238Y-71048230D01*
X134459856Y-70992008D01*
X134459852Y-70992006D01*
X134351231Y-70962900D01*
X134351229Y-70962900D01*
X134238771Y-70962900D01*
X134238769Y-70962900D01*
X134130147Y-70992006D01*
X134130143Y-70992008D01*
X134032761Y-71048230D01*
X134032752Y-71048237D01*
X133953237Y-71127752D01*
X133953230Y-71127761D01*
X133897008Y-71225143D01*
X133897006Y-71225147D01*
X133867900Y-71333769D01*
X128758740Y-71333769D01*
X127584513Y-70159542D01*
X127584507Y-70159537D01*
X127564008Y-70147703D01*
X127551463Y-70140460D01*
X127515991Y-70119979D01*
X127515987Y-70119978D01*
X127439564Y-70099500D01*
X127439562Y-70099500D01*
X127415846Y-70099500D01*
X127408893Y-70098583D01*
X127408849Y-70098919D01*
X127405665Y-70098500D01*
X127405662Y-70098500D01*
X121643256Y-70098500D01*
X121608608Y-70084148D01*
X121353553Y-69829093D01*
X121339201Y-69794445D01*
X121339201Y-69744441D01*
X121339200Y-69744440D01*
X121305093Y-69617151D01*
X121305092Y-69617147D01*
X121263318Y-69544793D01*
X121239201Y-69503022D01*
X121208569Y-69472390D01*
X121171693Y-69435513D01*
X121171692Y-69435512D01*
X121157341Y-69400864D01*
X121167107Y-69377289D01*
X121171691Y-69366219D01*
X121212497Y-69325415D01*
X121247144Y-69311064D01*
X122569000Y-69311064D01*
X122595666Y-69303918D01*
X122645425Y-69290585D01*
X122713947Y-69251024D01*
X122769896Y-69195075D01*
X125400118Y-66564851D01*
X125434766Y-66550500D01*
X125555895Y-66550500D01*
X125555895Y-66550499D01*
X125683186Y-66516392D01*
X125797314Y-66450500D01*
X125890500Y-66357314D01*
X125956392Y-66243186D01*
X125990499Y-66115895D01*
X125990500Y-66115895D01*
X125990500Y-65984105D01*
X125990499Y-65984104D01*
X125960527Y-65872247D01*
X125956392Y-65856814D01*
X125937507Y-65824104D01*
X128189500Y-65824104D01*
X128189500Y-65955895D01*
X128223607Y-66083184D01*
X128223608Y-66083188D01*
X128272686Y-66168192D01*
X128289500Y-66197314D01*
X128382686Y-66290500D01*
X128391660Y-66295681D01*
X128496811Y-66356391D01*
X128496813Y-66356391D01*
X128496814Y-66356392D01*
X128597207Y-66383292D01*
X128624104Y-66390499D01*
X128624105Y-66390500D01*
X128745233Y-66390500D01*
X128779881Y-66404852D01*
X131999540Y-69624511D01*
X132055489Y-69680460D01*
X132124011Y-69720021D01*
X132159478Y-69729524D01*
X132200436Y-69740500D01*
X132200438Y-69740500D01*
X132279562Y-69740500D01*
X133922390Y-69740500D01*
X133957038Y-69754852D01*
X134042686Y-69840500D01*
X134051660Y-69845681D01*
X134156811Y-69906391D01*
X134156813Y-69906391D01*
X134156814Y-69906392D01*
X134257207Y-69933292D01*
X134284104Y-69940499D01*
X134284105Y-69940500D01*
X134284108Y-69940500D01*
X134415895Y-69940500D01*
X134415895Y-69940499D01*
X134543186Y-69906392D01*
X134657314Y-69840500D01*
X134750500Y-69747314D01*
X134816392Y-69633186D01*
X134850499Y-69505895D01*
X134850500Y-69505895D01*
X134850500Y-69374105D01*
X134850499Y-69374104D01*
X134835433Y-69317878D01*
X134816392Y-69246814D01*
X134816391Y-69246813D01*
X134816391Y-69246811D01*
X134750499Y-69132685D01*
X134657314Y-69039500D01*
X134543188Y-68973608D01*
X134543184Y-68973607D01*
X134415895Y-68939500D01*
X134415892Y-68939500D01*
X134284108Y-68939500D01*
X134284105Y-68939500D01*
X134156815Y-68973607D01*
X134156811Y-68973608D01*
X134042685Y-69039500D01*
X134042685Y-69039501D01*
X133957038Y-69125148D01*
X133922390Y-69139500D01*
X132384767Y-69139500D01*
X132350119Y-69125148D01*
X129204852Y-65979881D01*
X129190500Y-65945233D01*
X129190500Y-65824105D01*
X129190499Y-65824104D01*
X129177303Y-65774856D01*
X129156392Y-65696814D01*
X129156391Y-65696813D01*
X129156391Y-65696811D01*
X129098413Y-65596392D01*
X129090500Y-65582686D01*
X128997314Y-65489500D01*
X128961319Y-65468718D01*
X128883188Y-65423608D01*
X128883184Y-65423607D01*
X128755895Y-65389500D01*
X128755892Y-65389500D01*
X128624108Y-65389500D01*
X128624105Y-65389500D01*
X128496815Y-65423607D01*
X128496811Y-65423608D01*
X128382685Y-65489500D01*
X128382685Y-65489501D01*
X128289501Y-65582685D01*
X128289500Y-65582685D01*
X128223608Y-65696811D01*
X128223607Y-65696815D01*
X128189500Y-65824104D01*
X125937507Y-65824104D01*
X125890500Y-65742686D01*
X125797314Y-65649500D01*
X125791039Y-65645877D01*
X125683188Y-65583608D01*
X125683184Y-65583607D01*
X125555895Y-65549500D01*
X125555892Y-65549500D01*
X125424108Y-65549500D01*
X125424105Y-65549500D01*
X125296815Y-65583607D01*
X125296811Y-65583608D01*
X125182685Y-65649500D01*
X125182685Y-65649501D01*
X125089501Y-65742685D01*
X125089500Y-65742685D01*
X125023608Y-65856811D01*
X125023607Y-65856815D01*
X124989500Y-65984104D01*
X124989500Y-66105232D01*
X124975148Y-66139880D01*
X122419317Y-68695712D01*
X122384669Y-68710064D01*
X121247144Y-68710064D01*
X121212496Y-68695712D01*
X121126848Y-68610064D01*
X121012722Y-68544172D01*
X121012718Y-68544171D01*
X120885429Y-68510064D01*
X120885426Y-68510064D01*
X120753642Y-68510064D01*
X120753639Y-68510064D01*
X120626349Y-68544171D01*
X120626345Y-68544172D01*
X120512219Y-68610064D01*
X120512219Y-68610065D01*
X120419035Y-68703249D01*
X120419034Y-68703249D01*
X120353142Y-68817375D01*
X120353141Y-68817379D01*
X120319034Y-68944668D01*
X120319034Y-69076459D01*
X120353141Y-69203748D01*
X120353142Y-69203752D01*
X120419034Y-69317878D01*
X120486541Y-69385385D01*
X120500893Y-69420033D01*
X120486542Y-69454680D01*
X120468833Y-69472390D01*
X120438200Y-69503023D01*
X120372309Y-69617147D01*
X120372308Y-69617151D01*
X120338201Y-69744440D01*
X120338201Y-69876231D01*
X120372308Y-70003520D01*
X120372309Y-70003524D01*
X120438201Y-70117650D01*
X120506558Y-70186007D01*
X120520910Y-70220655D01*
X120506559Y-70255302D01*
X120493456Y-70268406D01*
X120459110Y-70302752D01*
X120393219Y-70416876D01*
X120393218Y-70416880D01*
X120359111Y-70544169D01*
X120359111Y-70675960D01*
X120393218Y-70803249D01*
X120393219Y-70803253D01*
X120459111Y-70917379D01*
X120522310Y-70980578D01*
X120536662Y-71015226D01*
X120522311Y-71049874D01*
X120469499Y-71102687D01*
X120403608Y-71216811D01*
X120403607Y-71216815D01*
X120369500Y-71344104D01*
X120369500Y-71475895D01*
X120403607Y-71603184D01*
X120403608Y-71603188D01*
X120469500Y-71717314D01*
X120469501Y-71717315D01*
X120537537Y-71785352D01*
X120551889Y-71820000D01*
X120537538Y-71854648D01*
X120479499Y-71912687D01*
X120413608Y-72026811D01*
X120413607Y-72026815D01*
X120379500Y-72154104D01*
X120379500Y-72285895D01*
X120412169Y-72407818D01*
X120407274Y-72445000D01*
X120377521Y-72467830D01*
X120364839Y-72469500D01*
X118370493Y-72469500D01*
X118294069Y-72489978D01*
X118294065Y-72489979D01*
X118252265Y-72514114D01*
X118252262Y-72514116D01*
X118225549Y-72529537D01*
X118225543Y-72529542D01*
X117250748Y-73504338D01*
X117216100Y-73518690D01*
X117134175Y-73518690D01*
X117006885Y-73552797D01*
X117006881Y-73552798D01*
X116892755Y-73618690D01*
X116892755Y-73618691D01*
X116799571Y-73711875D01*
X116799570Y-73711875D01*
X116733678Y-73826001D01*
X116733677Y-73826005D01*
X116699570Y-73953294D01*
X116699570Y-74085085D01*
X116733677Y-74212374D01*
X116733678Y-74212378D01*
X116790329Y-74310499D01*
X116799570Y-74326504D01*
X116892756Y-74419690D01*
X116934527Y-74443807D01*
X117006881Y-74485581D01*
X117006883Y-74485581D01*
X117006884Y-74485582D01*
X117078555Y-74504786D01*
X117134174Y-74519689D01*
X117134175Y-74519690D01*
X117134178Y-74519690D01*
X117265965Y-74519690D01*
X117265965Y-74519689D01*
X117393256Y-74485582D01*
X117507384Y-74419690D01*
X117559984Y-74367089D01*
X117594628Y-74352739D01*
X117629275Y-74367089D01*
X117692686Y-74430500D01*
X117734457Y-74454617D01*
X117806811Y-74496391D01*
X117806813Y-74496391D01*
X117806814Y-74496392D01*
X117893764Y-74519690D01*
X117934104Y-74530499D01*
X117934105Y-74530500D01*
X117934108Y-74530500D01*
X118065895Y-74530500D01*
X118065895Y-74530499D01*
X118193186Y-74496392D01*
X118307314Y-74430500D01*
X118400500Y-74337314D01*
X118451459Y-74249049D01*
X118481212Y-74226220D01*
X118518391Y-74231114D01*
X118596814Y-74276392D01*
X118697207Y-74303292D01*
X118724104Y-74310499D01*
X118724105Y-74310500D01*
X118724108Y-74310500D01*
X118855895Y-74310500D01*
X118855895Y-74310499D01*
X118983186Y-74276392D01*
X119097314Y-74210500D01*
X119182962Y-74124852D01*
X119217610Y-74110500D01*
X122391311Y-74110500D01*
X122398263Y-74111416D01*
X122398308Y-74111081D01*
X122401492Y-74111500D01*
X122401495Y-74111500D01*
X122662274Y-74111500D01*
X122696922Y-74125852D01*
X122711274Y-74160500D01*
X122696922Y-74195148D01*
X121529521Y-75362549D01*
X121529520Y-75362549D01*
X121476793Y-75453873D01*
X121475124Y-75460105D01*
X121475123Y-75460104D01*
X121475123Y-75460108D01*
X121449500Y-75555732D01*
X121449500Y-77230968D01*
X121435148Y-77265616D01*
X121369482Y-77331281D01*
X121369475Y-77331290D01*
X121290423Y-77468213D01*
X121290422Y-77468217D01*
X121249500Y-77620939D01*
X121249500Y-77779060D01*
X121290422Y-77931782D01*
X121290423Y-77931786D01*
X121369475Y-78068709D01*
X121369482Y-78068718D01*
X121446616Y-78145852D01*
X121460968Y-78180500D01*
X121446616Y-78215148D01*
X121411968Y-78229500D01*
X116200708Y-78229500D01*
X116166060Y-78215148D01*
X112472087Y-74521175D01*
X112457735Y-74486527D01*
X112457735Y-74365399D01*
X112457734Y-74365398D01*
X112423627Y-74238109D01*
X112423626Y-74238105D01*
X112378820Y-74160500D01*
X112357735Y-74123980D01*
X112264549Y-74030794D01*
X112229399Y-74010500D01*
X112150423Y-73964902D01*
X112150419Y-73964901D01*
X112023130Y-73930794D01*
X112023127Y-73930794D01*
X111891343Y-73930794D01*
X111891340Y-73930794D01*
X111764050Y-73964901D01*
X111764047Y-73964902D01*
X111715495Y-73992935D01*
X111690995Y-73999500D01*
X104970436Y-73999500D01*
X104894010Y-74019979D01*
X104894008Y-74019979D01*
X104841048Y-74050556D01*
X104841048Y-74050557D01*
X104825489Y-74059540D01*
X104825486Y-74059542D01*
X104259880Y-74625148D01*
X104225232Y-74639500D01*
X104104105Y-74639500D01*
X103976815Y-74673607D01*
X103976811Y-74673608D01*
X103862687Y-74739499D01*
X103851775Y-74750411D01*
X103817126Y-74764761D01*
X103782480Y-74750409D01*
X101900611Y-72868540D01*
X101865738Y-72848406D01*
X101855590Y-72840619D01*
X101683513Y-72668542D01*
X101683512Y-72668541D01*
X101683511Y-72668540D01*
X101683508Y-72668538D01*
X101683504Y-72668535D01*
X101669587Y-72660501D01*
X101669585Y-72660500D01*
X101614991Y-72628979D01*
X101614987Y-72628978D01*
X101538564Y-72608500D01*
X101538562Y-72608500D01*
X94640619Y-72608500D01*
X94561495Y-72608500D01*
X94561492Y-72608500D01*
X94485070Y-72628977D01*
X94485067Y-72628978D01*
X94416545Y-72668540D01*
X94416545Y-72668541D01*
X94113457Y-72971629D01*
X94078809Y-72985981D01*
X93984449Y-72985981D01*
X93857159Y-73020088D01*
X93857155Y-73020089D01*
X93743029Y-73085981D01*
X93743029Y-73085982D01*
X93649845Y-73179166D01*
X93649844Y-73179166D01*
X93583952Y-73293292D01*
X93583951Y-73293296D01*
X93549844Y-73420585D01*
X93549844Y-73552376D01*
X93583951Y-73679665D01*
X93583952Y-73679669D01*
X93624824Y-73750460D01*
X93649844Y-73793795D01*
X93743030Y-73886981D01*
X93783764Y-73910499D01*
X93857155Y-73952872D01*
X93857157Y-73952872D01*
X93857158Y-73952873D01*
X93944929Y-73976391D01*
X93984448Y-73986980D01*
X93984449Y-73986981D01*
X93984452Y-73986981D01*
X94116239Y-73986981D01*
X94116239Y-73986980D01*
X94243530Y-73952873D01*
X94357658Y-73886981D01*
X94403765Y-73840872D01*
X94438411Y-73826522D01*
X94473058Y-73840872D01*
X94542686Y-73910500D01*
X94577836Y-73930794D01*
X94656811Y-73976391D01*
X94656813Y-73976391D01*
X94656814Y-73976392D01*
X94718554Y-73992935D01*
X94784104Y-74010499D01*
X94784105Y-74010500D01*
X94784108Y-74010500D01*
X94915895Y-74010500D01*
X94915895Y-74010499D01*
X95043186Y-73976392D01*
X95157314Y-73910500D01*
X95250500Y-73817314D01*
X95316392Y-73703186D01*
X95331496Y-73646818D01*
X95354326Y-73617065D01*
X95378826Y-73610500D01*
X101188133Y-73610500D01*
X101222781Y-73624852D01*
X101348389Y-73750460D01*
X101383262Y-73770594D01*
X101393409Y-73778380D01*
X103713958Y-76098929D01*
X103728310Y-76133577D01*
X103721746Y-76158076D01*
X103693608Y-76206814D01*
X103693606Y-76206818D01*
X103659500Y-76334104D01*
X103659500Y-76465895D01*
X103693607Y-76593184D01*
X103693608Y-76593188D01*
X103759500Y-76707314D01*
X103768038Y-76715852D01*
X103782390Y-76750500D01*
X103768038Y-76785148D01*
X103733390Y-76799500D01*
X94555740Y-76799500D01*
X94555724Y-76799499D01*
X94552727Y-76799499D01*
X94447273Y-76799499D01*
X94447271Y-76799499D01*
X94382737Y-76816791D01*
X94350470Y-76825438D01*
X94345860Y-76826673D01*
X94345409Y-76826794D01*
X94254086Y-76879520D01*
X94254086Y-76879521D01*
X92579521Y-78554086D01*
X92579520Y-78554086D01*
X92526794Y-78645408D01*
X92526793Y-78645412D01*
X92523604Y-78657314D01*
X92499500Y-78747269D01*
X92499500Y-81672447D01*
X92485148Y-81707095D01*
X92428521Y-81763722D01*
X92428520Y-81763722D01*
X92375793Y-81855046D01*
X92374124Y-81861278D01*
X92374123Y-81861277D01*
X92374123Y-81861281D01*
X92348500Y-81956905D01*
X92348500Y-82643094D01*
X92375792Y-82744951D01*
X92375793Y-82744953D01*
X92428520Y-82836277D01*
X92485148Y-82892905D01*
X92499500Y-82927553D01*
X92499500Y-88770968D01*
X92485148Y-88805616D01*
X92419482Y-88871281D01*
X92419475Y-88871290D01*
X92340423Y-89008213D01*
X92340422Y-89008217D01*
X92299500Y-89160939D01*
X89100500Y-89160939D01*
X89100500Y-71814939D01*
X104373500Y-71814939D01*
X104373500Y-71973060D01*
X104414422Y-72125782D01*
X104414423Y-72125786D01*
X104493475Y-72262709D01*
X104493478Y-72262713D01*
X104493480Y-72262716D01*
X104605284Y-72374520D01*
X104605287Y-72374521D01*
X104605290Y-72374524D01*
X104742213Y-72453576D01*
X104742215Y-72453576D01*
X104742216Y-72453577D01*
X104801642Y-72469500D01*
X104894939Y-72494499D01*
X104894940Y-72494500D01*
X104894943Y-72494500D01*
X105053060Y-72494500D01*
X105053060Y-72494499D01*
X105205784Y-72453577D01*
X105224827Y-72442583D01*
X105313792Y-72391218D01*
X105342716Y-72374520D01*
X105454520Y-72262716D01*
X105533577Y-72125784D01*
X105567446Y-71999383D01*
X105572372Y-71981001D01*
X106239500Y-71981001D01*
X106239500Y-72118998D01*
X106266417Y-72254318D01*
X106266420Y-72254329D01*
X106319223Y-72381807D01*
X106319225Y-72381811D01*
X106342430Y-72416539D01*
X106395883Y-72496539D01*
X106493460Y-72594116D01*
X106525934Y-72615814D01*
X106608189Y-72670775D01*
X106735672Y-72723580D01*
X106735678Y-72723581D01*
X106735681Y-72723582D01*
X106871001Y-72750499D01*
X106871007Y-72750500D01*
X107008993Y-72750500D01*
X107144328Y-72723580D01*
X107271811Y-72670775D01*
X107386542Y-72594114D01*
X107484114Y-72496542D01*
X107560775Y-72381811D01*
X107613580Y-72254328D01*
X107640500Y-72118993D01*
X107640500Y-71981007D01*
X107627739Y-71916852D01*
X107624021Y-71898159D01*
X107622597Y-71891001D01*
X108319500Y-71891001D01*
X108319500Y-72028998D01*
X108346417Y-72164318D01*
X108346420Y-72164329D01*
X108399223Y-72291807D01*
X108399225Y-72291811D01*
X108425515Y-72331156D01*
X108475883Y-72406539D01*
X108573460Y-72504116D01*
X108612947Y-72530500D01*
X108688189Y-72580775D01*
X108815672Y-72633580D01*
X108815678Y-72633581D01*
X108815681Y-72633582D01*
X108951001Y-72660499D01*
X108951007Y-72660500D01*
X109088993Y-72660500D01*
X109224328Y-72633580D01*
X109351811Y-72580775D01*
X109466542Y-72504114D01*
X109564114Y-72406542D01*
X109640775Y-72291811D01*
X109693580Y-72164328D01*
X109720500Y-72028993D01*
X109720500Y-71891007D01*
X109720499Y-71891001D01*
X110319500Y-71891001D01*
X110319500Y-72028998D01*
X110346417Y-72164318D01*
X110346420Y-72164329D01*
X110399223Y-72291807D01*
X110399225Y-72291811D01*
X110425515Y-72331156D01*
X110475883Y-72406539D01*
X110573460Y-72504116D01*
X110612947Y-72530500D01*
X110688189Y-72580775D01*
X110815672Y-72633580D01*
X110815678Y-72633581D01*
X110815681Y-72633582D01*
X110951001Y-72660499D01*
X110951007Y-72660500D01*
X111088993Y-72660500D01*
X111224328Y-72633580D01*
X111351811Y-72580775D01*
X111466542Y-72504114D01*
X111564114Y-72406542D01*
X111640775Y-72291811D01*
X111693580Y-72164328D01*
X111720500Y-72028993D01*
X111720500Y-71901001D01*
X113679500Y-71901001D01*
X113679500Y-72038998D01*
X113706417Y-72174318D01*
X113706420Y-72174329D01*
X113744087Y-72265265D01*
X113759225Y-72301811D01*
X113784663Y-72339881D01*
X113835883Y-72416539D01*
X113933460Y-72514116D01*
X113979102Y-72544613D01*
X114048189Y-72590775D01*
X114175672Y-72643580D01*
X114175678Y-72643581D01*
X114175681Y-72643582D01*
X114311001Y-72670499D01*
X114311007Y-72670500D01*
X114448993Y-72670500D01*
X114584328Y-72643580D01*
X114711811Y-72590775D01*
X114826542Y-72514114D01*
X114924114Y-72416542D01*
X115000775Y-72301811D01*
X115053580Y-72174328D01*
X115080500Y-72038993D01*
X115080500Y-71901007D01*
X115080499Y-71901001D01*
X115679500Y-71901001D01*
X115679500Y-72038998D01*
X115706417Y-72174318D01*
X115706420Y-72174329D01*
X115744087Y-72265265D01*
X115759225Y-72301811D01*
X115784663Y-72339881D01*
X115835883Y-72416539D01*
X115933460Y-72514116D01*
X115979102Y-72544613D01*
X116048189Y-72590775D01*
X116175672Y-72643580D01*
X116175678Y-72643581D01*
X116175681Y-72643582D01*
X116311001Y-72670499D01*
X116311007Y-72670500D01*
X116448993Y-72670500D01*
X116584328Y-72643580D01*
X116711811Y-72590775D01*
X116826542Y-72514114D01*
X116924114Y-72416542D01*
X117000775Y-72301811D01*
X117053580Y-72174328D01*
X117080500Y-72038993D01*
X117080500Y-71901007D01*
X117080499Y-71901001D01*
X117053582Y-71765681D01*
X117053579Y-71765670D01*
X117000775Y-71638189D01*
X116945091Y-71554852D01*
X116924116Y-71523460D01*
X116826539Y-71425883D01*
X116752511Y-71376420D01*
X116711811Y-71349225D01*
X116711808Y-71349223D01*
X116711807Y-71349223D01*
X116584329Y-71296420D01*
X116584318Y-71296417D01*
X116448998Y-71269500D01*
X116448993Y-71269500D01*
X116311007Y-71269500D01*
X116311001Y-71269500D01*
X116175681Y-71296417D01*
X116175670Y-71296420D01*
X116048192Y-71349223D01*
X115933460Y-71425883D01*
X115835883Y-71523460D01*
X115759223Y-71638192D01*
X115706420Y-71765670D01*
X115706417Y-71765681D01*
X115679500Y-71901001D01*
X115080499Y-71901001D01*
X115053582Y-71765681D01*
X115053579Y-71765670D01*
X115000775Y-71638189D01*
X114945091Y-71554852D01*
X114924116Y-71523460D01*
X114826539Y-71425883D01*
X114752511Y-71376420D01*
X114711811Y-71349225D01*
X114711808Y-71349223D01*
X114711807Y-71349223D01*
X114584329Y-71296420D01*
X114584318Y-71296417D01*
X114448998Y-71269500D01*
X114448993Y-71269500D01*
X114311007Y-71269500D01*
X114311001Y-71269500D01*
X114175681Y-71296417D01*
X114175670Y-71296420D01*
X114048192Y-71349223D01*
X113933460Y-71425883D01*
X113835883Y-71523460D01*
X113759223Y-71638192D01*
X113706420Y-71765670D01*
X113706417Y-71765681D01*
X113679500Y-71901001D01*
X111720500Y-71901001D01*
X111720500Y-71891007D01*
X111693580Y-71755672D01*
X111640775Y-71628189D01*
X111572014Y-71525281D01*
X111564116Y-71513460D01*
X111466539Y-71415883D01*
X111398074Y-71370137D01*
X111351811Y-71339225D01*
X111351808Y-71339223D01*
X111351807Y-71339223D01*
X111224329Y-71286420D01*
X111224318Y-71286417D01*
X111088998Y-71259500D01*
X111088993Y-71259500D01*
X110951007Y-71259500D01*
X110951001Y-71259500D01*
X110815681Y-71286417D01*
X110815670Y-71286420D01*
X110688192Y-71339223D01*
X110573460Y-71415883D01*
X110475883Y-71513460D01*
X110399223Y-71628192D01*
X110346420Y-71755670D01*
X110346417Y-71755681D01*
X110319500Y-71891001D01*
X109720499Y-71891001D01*
X109693580Y-71755672D01*
X109640775Y-71628189D01*
X109572014Y-71525281D01*
X109564116Y-71513460D01*
X109466539Y-71415883D01*
X109398074Y-71370137D01*
X109351811Y-71339225D01*
X109351808Y-71339223D01*
X109351807Y-71339223D01*
X109224329Y-71286420D01*
X109224318Y-71286417D01*
X109088998Y-71259500D01*
X109088993Y-71259500D01*
X108951007Y-71259500D01*
X108951001Y-71259500D01*
X108815681Y-71286417D01*
X108815670Y-71286420D01*
X108688192Y-71339223D01*
X108573460Y-71415883D01*
X108475883Y-71513460D01*
X108399223Y-71628192D01*
X108346420Y-71755670D01*
X108346417Y-71755681D01*
X108319500Y-71891001D01*
X107622597Y-71891001D01*
X107613582Y-71845681D01*
X107613579Y-71845670D01*
X107601745Y-71817100D01*
X107560775Y-71718189D01*
X107500639Y-71628189D01*
X107484116Y-71603460D01*
X107386539Y-71505883D01*
X107317294Y-71459616D01*
X107271811Y-71429225D01*
X107271808Y-71429223D01*
X107271807Y-71429223D01*
X107144329Y-71376420D01*
X107144318Y-71376417D01*
X107008998Y-71349500D01*
X107008993Y-71349500D01*
X106871007Y-71349500D01*
X106871001Y-71349500D01*
X106735681Y-71376417D01*
X106735670Y-71376420D01*
X106608192Y-71429223D01*
X106493460Y-71505883D01*
X106395883Y-71603460D01*
X106319223Y-71718192D01*
X106266420Y-71845670D01*
X106266417Y-71845681D01*
X106239500Y-71981001D01*
X105572372Y-71981001D01*
X105574498Y-71973065D01*
X105574499Y-71973060D01*
X105574500Y-71973057D01*
X105574500Y-71814943D01*
X105574500Y-71814940D01*
X105574499Y-71814939D01*
X105552214Y-71731769D01*
X105533577Y-71662216D01*
X105533576Y-71662215D01*
X105533576Y-71662213D01*
X105454524Y-71525290D01*
X105454521Y-71525287D01*
X105454520Y-71525284D01*
X105388852Y-71459616D01*
X105374500Y-71424968D01*
X105374500Y-70990993D01*
X118550426Y-70990993D01*
X118550427Y-70990994D01*
X118668406Y-71059110D01*
X118668410Y-71059111D01*
X118821005Y-71099999D01*
X118821006Y-71100000D01*
X118978994Y-71100000D01*
X118978994Y-71099999D01*
X119131589Y-71059111D01*
X119131593Y-71059110D01*
X119249571Y-70990994D01*
X119249572Y-70990993D01*
X118900000Y-70641422D01*
X118550426Y-70990993D01*
X105374500Y-70990993D01*
X105374500Y-69981001D01*
X106229500Y-69981001D01*
X106229500Y-70118998D01*
X106256417Y-70254318D01*
X106256420Y-70254329D01*
X106302838Y-70366392D01*
X106309225Y-70381811D01*
X106335414Y-70421005D01*
X106385883Y-70496539D01*
X106483460Y-70594116D01*
X106529102Y-70624613D01*
X106598189Y-70670775D01*
X106725672Y-70723580D01*
X106725678Y-70723581D01*
X106725681Y-70723582D01*
X106861001Y-70750499D01*
X106861007Y-70750500D01*
X106998993Y-70750500D01*
X107134328Y-70723580D01*
X107261811Y-70670775D01*
X107376542Y-70594114D01*
X107474114Y-70496542D01*
X107524586Y-70421005D01*
X118300000Y-70421005D01*
X118300000Y-70578994D01*
X118340888Y-70731589D01*
X118340889Y-70731593D01*
X118409004Y-70849571D01*
X118409005Y-70849572D01*
X118758578Y-70500000D01*
X118758578Y-70499999D01*
X119041422Y-70499999D01*
X119041422Y-70500000D01*
X119390993Y-70849572D01*
X119390994Y-70849571D01*
X119459110Y-70731593D01*
X119459111Y-70731589D01*
X119499999Y-70578994D01*
X119500000Y-70578994D01*
X119500000Y-70421006D01*
X119499999Y-70421005D01*
X119459111Y-70268410D01*
X119459110Y-70268406D01*
X119390994Y-70150427D01*
X119390993Y-70150426D01*
X119041422Y-70499999D01*
X118758578Y-70499999D01*
X118409005Y-70150426D01*
X118409004Y-70150427D01*
X118340890Y-70268407D01*
X118340887Y-70268413D01*
X118300000Y-70421005D01*
X107524586Y-70421005D01*
X107550775Y-70381811D01*
X107603580Y-70254328D01*
X107630500Y-70118993D01*
X107630500Y-70009005D01*
X118550426Y-70009005D01*
X118900000Y-70358578D01*
X118900001Y-70358578D01*
X119249572Y-70009005D01*
X119249571Y-70009004D01*
X119131593Y-69940889D01*
X119131589Y-69940888D01*
X118978994Y-69900000D01*
X118821006Y-69900000D01*
X118668413Y-69940887D01*
X118668407Y-69940890D01*
X118550427Y-70009004D01*
X118550426Y-70009005D01*
X107630500Y-70009005D01*
X107630500Y-69981007D01*
X107627494Y-69965895D01*
X107603582Y-69845681D01*
X107603579Y-69845670D01*
X107550776Y-69718192D01*
X107550775Y-69718189D01*
X107493978Y-69633186D01*
X107474116Y-69603460D01*
X107376539Y-69505883D01*
X107299908Y-69454681D01*
X107261811Y-69429225D01*
X107261808Y-69429223D01*
X107261807Y-69429223D01*
X107134329Y-69376420D01*
X107134318Y-69376417D01*
X106998998Y-69349500D01*
X106998993Y-69349500D01*
X106861007Y-69349500D01*
X106861001Y-69349500D01*
X106725681Y-69376417D01*
X106725670Y-69376420D01*
X106598192Y-69429223D01*
X106483460Y-69505883D01*
X106385883Y-69603460D01*
X106309223Y-69718192D01*
X106256420Y-69845670D01*
X106256417Y-69845681D01*
X106229500Y-69981001D01*
X105374500Y-69981001D01*
X105374500Y-68431001D01*
X118199500Y-68431001D01*
X118199500Y-68568998D01*
X118226417Y-68704318D01*
X118226420Y-68704329D01*
X118273247Y-68817379D01*
X118279225Y-68831811D01*
X118310137Y-68878074D01*
X118355883Y-68946539D01*
X118453460Y-69044116D01*
X118499102Y-69074613D01*
X118568189Y-69120775D01*
X118695672Y-69173580D01*
X118695678Y-69173581D01*
X118695681Y-69173582D01*
X118831001Y-69200499D01*
X118831007Y-69200500D01*
X118968993Y-69200500D01*
X119104328Y-69173580D01*
X119231811Y-69120775D01*
X119346542Y-69044114D01*
X119444114Y-68946542D01*
X119520775Y-68831811D01*
X119573580Y-68704328D01*
X119600500Y-68568993D01*
X119600500Y-68431007D01*
X119573580Y-68295672D01*
X119520775Y-68168189D01*
X119470510Y-68092962D01*
X119444116Y-68053460D01*
X119346539Y-67955883D01*
X119252702Y-67893184D01*
X119231811Y-67879225D01*
X119231808Y-67879223D01*
X119231807Y-67879223D01*
X119104329Y-67826420D01*
X119104318Y-67826417D01*
X118968998Y-67799500D01*
X118968993Y-67799500D01*
X118831007Y-67799500D01*
X118831001Y-67799500D01*
X118695681Y-67826417D01*
X118695670Y-67826420D01*
X118568192Y-67879223D01*
X118453460Y-67955883D01*
X118355883Y-68053460D01*
X118279223Y-68168192D01*
X118226420Y-68295670D01*
X118226417Y-68295681D01*
X118199500Y-68431001D01*
X105374500Y-68431001D01*
X105374500Y-67351001D01*
X108559500Y-67351001D01*
X108559500Y-67488998D01*
X108586417Y-67624318D01*
X108586420Y-67624329D01*
X108597302Y-67650600D01*
X108639225Y-67751811D01*
X108648634Y-67765892D01*
X108715883Y-67866539D01*
X108813460Y-67964116D01*
X108859102Y-67994613D01*
X108928189Y-68040775D01*
X109055672Y-68093580D01*
X109055678Y-68093581D01*
X109055681Y-68093582D01*
X109191001Y-68120499D01*
X109191007Y-68120500D01*
X109328993Y-68120500D01*
X109464328Y-68093580D01*
X109591811Y-68040775D01*
X109706542Y-67964114D01*
X109804114Y-67866542D01*
X109880775Y-67751811D01*
X109933580Y-67624328D01*
X109960500Y-67488993D01*
X109960500Y-67351007D01*
X109933580Y-67215672D01*
X109880775Y-67088189D01*
X109834613Y-67019102D01*
X109804116Y-66973460D01*
X109706539Y-66875883D01*
X109638074Y-66830137D01*
X109591811Y-66799225D01*
X109591808Y-66799223D01*
X109591807Y-66799223D01*
X109464329Y-66746420D01*
X109464318Y-66746417D01*
X109328998Y-66719500D01*
X109328993Y-66719500D01*
X109191007Y-66719500D01*
X109191001Y-66719500D01*
X109055681Y-66746417D01*
X109055670Y-66746420D01*
X108928192Y-66799223D01*
X108813460Y-66875883D01*
X108715883Y-66973460D01*
X108639223Y-67088192D01*
X108586420Y-67215670D01*
X108586417Y-67215681D01*
X108559500Y-67351001D01*
X105374500Y-67351001D01*
X105374500Y-66431001D01*
X118199500Y-66431001D01*
X118199500Y-66568998D01*
X118226417Y-66704318D01*
X118226420Y-66704329D01*
X118265727Y-66799225D01*
X118279225Y-66831811D01*
X118308673Y-66875883D01*
X118355883Y-66946539D01*
X118453460Y-67044116D01*
X118499102Y-67074613D01*
X118568189Y-67120775D01*
X118695672Y-67173580D01*
X118695678Y-67173581D01*
X118695681Y-67173582D01*
X118831001Y-67200499D01*
X118831007Y-67200500D01*
X118968993Y-67200500D01*
X119104328Y-67173580D01*
X119231811Y-67120775D01*
X119346542Y-67044114D01*
X119444114Y-66946542D01*
X119520775Y-66831811D01*
X119573580Y-66704328D01*
X119600500Y-66568993D01*
X119600500Y-66431007D01*
X119600499Y-66431001D01*
X119573582Y-66295681D01*
X119573579Y-66295670D01*
X119551840Y-66243188D01*
X119520775Y-66168189D01*
X119463978Y-66083186D01*
X119444116Y-66053460D01*
X119346539Y-65955883D01*
X119278074Y-65910137D01*
X119231811Y-65879225D01*
X119231808Y-65879223D01*
X119231807Y-65879223D01*
X119104329Y-65826420D01*
X119104318Y-65826417D01*
X118968998Y-65799500D01*
X118968993Y-65799500D01*
X118831007Y-65799500D01*
X118831001Y-65799500D01*
X118695681Y-65826417D01*
X118695670Y-65826420D01*
X118568192Y-65879223D01*
X118453460Y-65955883D01*
X118355883Y-66053460D01*
X118279223Y-66168192D01*
X118226420Y-66295670D01*
X118226417Y-66295681D01*
X118199500Y-66431001D01*
X105374500Y-66431001D01*
X105374500Y-65680525D01*
X105388852Y-65645877D01*
X105398998Y-65638091D01*
X105498716Y-65580520D01*
X105610520Y-65468716D01*
X105687704Y-65335028D01*
X105689576Y-65331786D01*
X105689576Y-65331785D01*
X105689577Y-65331784D01*
X105730499Y-65179060D01*
X105730500Y-65179060D01*
X105730500Y-65064104D01*
X130939500Y-65064104D01*
X130939500Y-65195895D01*
X130973607Y-65323184D01*
X130973608Y-65323188D01*
X131031586Y-65423607D01*
X131039500Y-65437314D01*
X131132686Y-65530500D01*
X131165595Y-65549500D01*
X131246811Y-65596391D01*
X131246813Y-65596391D01*
X131246814Y-65596392D01*
X131347207Y-65623292D01*
X131374104Y-65630499D01*
X131374105Y-65630500D01*
X131495233Y-65630500D01*
X131529881Y-65644852D01*
X133219640Y-67334611D01*
X133275589Y-67390560D01*
X133344111Y-67430121D01*
X133379578Y-67439624D01*
X133420536Y-67450600D01*
X133420538Y-67450600D01*
X133499662Y-67450600D01*
X133963390Y-67450600D01*
X133998038Y-67464952D01*
X134083686Y-67550600D01*
X134125457Y-67574717D01*
X134197811Y-67616491D01*
X134197813Y-67616491D01*
X134197814Y-67616492D01*
X134298207Y-67643392D01*
X134325104Y-67650599D01*
X134325105Y-67650600D01*
X134325108Y-67650600D01*
X134456895Y-67650600D01*
X134456895Y-67650599D01*
X134584186Y-67616492D01*
X134698314Y-67550600D01*
X134791500Y-67457414D01*
X134857392Y-67343286D01*
X134891499Y-67215995D01*
X134891500Y-67215995D01*
X134891500Y-67084205D01*
X134891499Y-67084204D01*
X134857392Y-66956915D01*
X134857391Y-66956911D01*
X134791499Y-66842785D01*
X134698314Y-66749600D01*
X134584188Y-66683708D01*
X134584184Y-66683707D01*
X134456895Y-66649600D01*
X134456892Y-66649600D01*
X134325108Y-66649600D01*
X134325105Y-66649600D01*
X134197815Y-66683707D01*
X134197811Y-66683708D01*
X134083685Y-66749600D01*
X134083685Y-66749601D01*
X133998038Y-66835248D01*
X133963390Y-66849600D01*
X133604867Y-66849600D01*
X133570219Y-66835248D01*
X132288740Y-65553769D01*
X133867900Y-65553769D01*
X133867900Y-65666230D01*
X133897006Y-65774852D01*
X133897008Y-65774856D01*
X133953230Y-65872238D01*
X133953233Y-65872242D01*
X133953235Y-65872245D01*
X134032755Y-65951765D01*
X134032758Y-65951766D01*
X134032761Y-65951769D01*
X134088770Y-65984105D01*
X134130146Y-66007993D01*
X134166354Y-66017695D01*
X134238769Y-66037100D01*
X134238771Y-66037100D01*
X134351231Y-66037100D01*
X134405541Y-66022546D01*
X134459854Y-66007993D01*
X134557245Y-65951765D01*
X134636765Y-65872245D01*
X134692993Y-65774854D01*
X134713904Y-65696815D01*
X134722100Y-65666230D01*
X134722100Y-65553769D01*
X134692993Y-65445147D01*
X134692991Y-65445143D01*
X134636769Y-65347761D01*
X134636766Y-65347758D01*
X134636765Y-65347755D01*
X134557245Y-65268235D01*
X134557242Y-65268233D01*
X134557238Y-65268230D01*
X134459856Y-65212008D01*
X134459852Y-65212006D01*
X134351231Y-65182900D01*
X134351229Y-65182900D01*
X134238771Y-65182900D01*
X134238769Y-65182900D01*
X134130147Y-65212006D01*
X134130143Y-65212008D01*
X134032761Y-65268230D01*
X134032752Y-65268237D01*
X133953237Y-65347752D01*
X133953230Y-65347761D01*
X133897008Y-65445143D01*
X133897006Y-65445147D01*
X133867900Y-65553769D01*
X132288740Y-65553769D01*
X131954852Y-65219881D01*
X131940500Y-65185233D01*
X131940500Y-65064105D01*
X131940499Y-65064104D01*
X131906392Y-64936815D01*
X131906391Y-64936811D01*
X131840499Y-64822685D01*
X131747314Y-64729500D01*
X131633188Y-64663608D01*
X131633184Y-64663607D01*
X131505895Y-64629500D01*
X131505892Y-64629500D01*
X131374108Y-64629500D01*
X131374105Y-64629500D01*
X131246815Y-64663607D01*
X131246811Y-64663608D01*
X131132685Y-64729500D01*
X131132685Y-64729501D01*
X131039501Y-64822685D01*
X131039500Y-64822685D01*
X130973608Y-64936811D01*
X130973607Y-64936815D01*
X130939500Y-65064104D01*
X105730500Y-65064104D01*
X105730500Y-65020940D01*
X105730499Y-65020939D01*
X105689577Y-64868217D01*
X105689576Y-64868213D01*
X105610524Y-64731290D01*
X105610521Y-64731287D01*
X105610520Y-64731284D01*
X105498716Y-64619480D01*
X105498713Y-64619478D01*
X105498709Y-64619475D01*
X105361786Y-64540423D01*
X105361782Y-64540422D01*
X105209060Y-64499500D01*
X105209057Y-64499500D01*
X105050943Y-64499500D01*
X105050940Y-64499500D01*
X104898217Y-64540422D01*
X104898213Y-64540423D01*
X104761290Y-64619475D01*
X104761281Y-64619482D01*
X104649482Y-64731281D01*
X104649475Y-64731290D01*
X104570423Y-64868213D01*
X104570422Y-64868217D01*
X104529500Y-65020939D01*
X104529500Y-65179060D01*
X104571254Y-65334887D01*
X104570727Y-65335028D01*
X104573500Y-65348959D01*
X104573500Y-71424968D01*
X104559148Y-71459616D01*
X104493482Y-71525281D01*
X104493475Y-71525290D01*
X104414423Y-71662213D01*
X104414422Y-71662217D01*
X104373500Y-71814939D01*
X89100500Y-71814939D01*
X89100500Y-67634104D01*
X101599500Y-67634104D01*
X101599500Y-67765895D01*
X101633607Y-67893184D01*
X101633608Y-67893188D01*
X101699500Y-68007314D01*
X101785148Y-68092962D01*
X101799500Y-68127610D01*
X101799500Y-69472390D01*
X101785148Y-69507038D01*
X101699501Y-69592685D01*
X101699500Y-69592685D01*
X101633608Y-69706811D01*
X101633607Y-69706815D01*
X101599500Y-69834104D01*
X101599500Y-69965895D01*
X101633607Y-70093184D01*
X101633608Y-70093188D01*
X101687198Y-70186007D01*
X101699500Y-70207314D01*
X101792686Y-70300500D01*
X101796587Y-70302752D01*
X101906811Y-70366391D01*
X101906813Y-70366391D01*
X101906814Y-70366392D01*
X101964359Y-70381811D01*
X102034104Y-70400499D01*
X102034105Y-70400500D01*
X102034108Y-70400500D01*
X102165895Y-70400500D01*
X102165895Y-70400499D01*
X102293186Y-70366392D01*
X102407314Y-70300500D01*
X102500500Y-70207314D01*
X102566392Y-70093186D01*
X102600499Y-69965895D01*
X102600500Y-69965895D01*
X102600500Y-69834105D01*
X102600499Y-69834104D01*
X102589872Y-69794445D01*
X102566392Y-69706814D01*
X102566391Y-69706813D01*
X102566391Y-69706811D01*
X102514624Y-69617150D01*
X102500500Y-69592686D01*
X102414852Y-69507038D01*
X102400500Y-69472390D01*
X102400500Y-68127610D01*
X102414852Y-68092962D01*
X102500499Y-68007315D01*
X102500500Y-68007314D01*
X102566392Y-67893186D01*
X102600499Y-67765895D01*
X102600500Y-67765895D01*
X102600500Y-67634105D01*
X102600499Y-67634104D01*
X102566392Y-67506815D01*
X102566391Y-67506811D01*
X102500499Y-67392685D01*
X102407314Y-67299500D01*
X102293188Y-67233608D01*
X102293184Y-67233607D01*
X102165895Y-67199500D01*
X102165892Y-67199500D01*
X102034108Y-67199500D01*
X102034105Y-67199500D01*
X101906815Y-67233607D01*
X101906811Y-67233608D01*
X101792685Y-67299500D01*
X101792685Y-67299501D01*
X101699501Y-67392685D01*
X101699500Y-67392685D01*
X101633608Y-67506811D01*
X101633607Y-67506815D01*
X101599500Y-67634104D01*
X89100500Y-67634104D01*
X89100500Y-64079999D01*
X132630628Y-64079999D01*
X132630629Y-64080000D01*
X132941212Y-64080000D01*
X132925000Y-64140504D01*
X132925000Y-64219496D01*
X132941212Y-64280000D01*
X132630628Y-64280000D01*
X132665888Y-64411589D01*
X132665889Y-64411592D01*
X132744881Y-64548408D01*
X132856591Y-64660118D01*
X132993407Y-64739110D01*
X132993410Y-64739111D01*
X133146005Y-64779999D01*
X133146006Y-64780000D01*
X133675000Y-64780000D01*
X133675000Y-64480000D01*
X133875000Y-64480000D01*
X133875000Y-64780000D01*
X134403994Y-64780000D01*
X134403994Y-64779999D01*
X134556589Y-64739111D01*
X134556592Y-64739110D01*
X134693408Y-64660118D01*
X134693409Y-64660118D01*
X134805118Y-64548409D01*
X134805118Y-64548408D01*
X134884110Y-64411592D01*
X134884111Y-64411589D01*
X134919371Y-64280000D01*
X134608788Y-64280000D01*
X134625000Y-64219496D01*
X134625000Y-64140504D01*
X134608788Y-64080000D01*
X134919371Y-64080000D01*
X134919371Y-64079999D01*
X134884111Y-63948410D01*
X134884110Y-63948407D01*
X134805118Y-63811591D01*
X134693408Y-63699881D01*
X134556592Y-63620889D01*
X134556589Y-63620888D01*
X134403994Y-63580000D01*
X133875000Y-63580000D01*
X133875000Y-63880000D01*
X133675000Y-63880000D01*
X133675000Y-63580000D01*
X133146006Y-63580000D01*
X132993410Y-63620888D01*
X132993407Y-63620889D01*
X132856591Y-63699881D01*
X132856591Y-63699882D01*
X132744882Y-63811591D01*
X132744881Y-63811591D01*
X132665889Y-63948407D01*
X132665888Y-63948410D01*
X132630628Y-64079999D01*
X89100500Y-64079999D01*
X89100500Y-57149500D01*
X89114852Y-57114852D01*
X89149500Y-57100500D01*
X94951000Y-57100500D01*
X94985648Y-57114852D01*
G37*
%TD.AperFunction*%
%TD*%
M02*
